<svg width="24" height="24" viewBox="0 0 24 24" fill="none" xmlns="http://www.w3.org/2000/svg">
<path d="M2.66667 0H21.3333C22.0406 0 22.7189 0.280951 23.219 0.781048C23.719 1.28115 24 1.95942 24 2.66667V21.3333C24 22.0406 23.719 22.7189 23.219 23.219C22.7189 23.719 22.0406 24 21.3333 24H2.66667C1.95942 24 1.28115 23.719 0.781048 23.219C0.280951 22.7189 0 22.0406 0 21.3333V2.66667C0 1.95942 0.280951 1.28115 0.781048 0.781048C1.28115 0.280951 1.95942 0 2.66667 0V0ZM20 2.66667H16.6667C15.429 2.66667 14.242 3.15833 13.3668 4.0335C12.4917 4.90867 12 6.09566 12 7.33333V10.6667H9.33333V14.6667H12V24H16V14.6667H20V10.6667H16V8C16 7.64638 16.1405 7.30724 16.3905 7.05719C16.6406 6.80714 16.9797 6.66667 17.3333 6.66667H20V2.66667Z" fill="#979797"/>
</svg>
