<svg width="24" height="24" viewBox="0 0 24 24" fill="none" xmlns="http://www.w3.org/2000/svg">
<path fill-rule="evenodd" clip-rule="evenodd" d="M24 10.2668C24 4.59661 18.6274 0 12 0C5.3725 0 -0.000173161 4.59661 4.18731e-09 10.2668C4.18731e-09 15.321 4.26872 19.522 9.88988 20.3752L9.8924 20.3756C10.0244 20.3956 10.1576 20.4132 10.2911 20.4295C11.4859 20.6954 11.2883 21.7928 11.1236 22.7072C11.0245 23.2575 10.9374 23.7415 11.1728 23.938C11.8937 24.54 17.3558 20.6382 20.6743 17.361C21.1546 16.9313 21.5914 16.4658 21.9793 15.9699L21.9863 15.9618C22.0789 15.8528 22.1523 15.7542 22.2085 15.6649C23.344 14.0966 24 12.2474 24 10.2668ZM7.45766 13.5416H5.03745C4.69319 13.5416 4.41161 13.2407 4.41161 12.8728V7.91332C4.41161 7.5455 4.69319 7.24465 5.03745 7.24465H5.08966C5.43392 7.24465 5.71549 7.5455 5.71549 7.91332V12.1484H7.45766C7.80193 12.1484 8.0835 12.4492 8.0835 12.8171V12.8729C8.0835 13.2407 7.80193 13.5416 7.45766 13.5416ZM20.0344 10.3772V10.433C20.0344 10.8007 19.7527 11.1016 19.4084 11.1014H17.6664V12.1602H19.4084C19.7527 12.1602 20.0344 12.4611 20.0344 12.8289V12.8847C20.0344 13.2525 19.7527 13.5535 19.4084 13.5535H16.9882C16.644 13.5535 16.3624 13.2525 16.3624 12.8847V7.92525C16.3624 7.55743 16.644 7.25658 16.9882 7.25658H19.4084C19.7527 7.25658 20.0344 7.55743 20.0344 7.92525V7.98104C20.0344 8.34886 19.7527 8.64971 19.4084 8.64971H17.6664V9.7085H19.4084C19.7527 9.7085 20.0344 10.0093 20.0344 10.3772ZM15.38 13.3423C15.3428 13.3906 15.2901 13.4317 15.2275 13.4635C15.1375 13.5149 15.0371 13.5417 14.9351 13.5416H14.8829C14.799 13.5416 14.7188 13.5237 14.6455 13.4913C14.5501 13.4531 14.4644 13.3905 14.4018 13.2993C14.3853 13.278 14.3699 13.2555 14.3559 13.2322L12.0775 9.90722V12.8729C12.0775 13.2408 11.7959 13.5417 11.4516 13.5417H11.3994C11.0551 13.5417 10.7735 13.2408 10.7735 12.8729V7.91351C10.7735 7.54568 11.0552 7.24483 11.3994 7.24483H11.4516C11.6835 7.24483 11.887 7.38138 11.9951 7.58296L14.2572 10.8247V7.91351C14.2572 7.54568 14.5387 7.24483 14.883 7.24483H14.9352C15.2796 7.24483 15.5611 7.54568 15.5611 7.91351V12.8729C15.561 13.0487 15.4958 13.2175 15.38 13.3423ZM9.26668 13.5416H9.21447C8.87021 13.5416 8.58855 13.2407 8.58855 12.8729V7.91341C8.58855 7.54559 8.87021 7.24474 9.21447 7.24474H9.26668C9.61094 7.24474 9.89251 7.54559 9.89251 7.91341V12.8729C9.89251 13.2407 9.61094 13.5416 9.26668 13.5416Z" fill="#979797"/>
</svg>
