<svg xmlns="http://www.w3.org/2000/svg" fill="none" width="88" height="42" viewBox="0 0 88000 42000"><g clip-path="url(#a)"><path d="M64272 23246h1340V24700h-1340v-1453zm-6820 760h1105v3364h3725v1001h-3725v6737c0 1327 700 2003 2082 2003 514 0 944-100 1542-367l50-25v1026l-13 10a3884 3884 0 01-1746 374c-1880 0-3010-1100-3010-2930v-6840h-1550v-1000h1543v-3355zM54200 35433c-1045 1152-2234 1736-3532 1736-2428 0-4333-1986-4333-4515v-42c0-2513 1863-4474 4250-4474 1592 0 2630 826 3505 1720l26 24 775-793-25-36c-877-910-2158-1944-4274-1944-3000 0-5445 2480-5445 5535v40c0 3030 2444 5495 5445 5495 1720 0 3068-643 4350-2096l25-23-759-668-8 33" fill="#fff"/><path d="M39313 27203c-1585 0-2798 459-3776 910l-34 16 405 952 33-17c1138-576 2184-843 3313-843 2225 0 3456 1127 3456 3180v410c-885-234-1930-443-3480-443-2884 0-4679 1327-4679 3456v41c10 1019 465 1887 1333 2496 750 535 1770 835 2814 835 2201 0 3450-1169 4022-1920v1678h1070v-6586c0-2654-1626-4165-4467-4165zm3422 6770c0 1820-1710 3196-3978 3196-1510 0-3043-818-3043-2370v-42c0-1486 1323-2412 3456-2412 1509 0 2697 250 3565 467v1160" fill="#fff" fill-rule="evenodd" clip-rule="evenodd"/><path d="M65494 27370h-1096v10576h1096V27370zm11253 0-4030 9315-3986-9299-9-16h-1264l4788 10634 8 25h919l4770-10610 26-50h-1222" fill="#fff"/><path d="M77960 32637c0-3097 2234-5518 5075-5518 2883 0 4897 2279 4897 5535v40c0 143 0 210-17 377v33h-8791c194 2396 1880 4065 4122 4065 1416 0 2562-517 3616-1636l25-25 760 668-27 25c-1306 1394-2630 1987-4416 1987a5110 5110 0 01-3676-1520c-1010-1018-1567-2437-1567-3990v-41zm5033-4516c-2040 0-3667 1686-3870 4007h7638c-144-1862-1206-4007-3768-4007" fill="#fff" fill-rule="evenodd" clip-rule="evenodd"/><path d="M30665 20535c17 33 25 66 50 91 34 34 68 59 110 92 17 17 67 34 67 59 60 8 127 25 135 25 50 16 127 16 152 16 50 0 120 9 160-8 32-17 210-67 226-75 42-25 211-108 236-125 42-34 93-50 144-75 17-9 26 0 34-9 11-8 1-25 18-33 17-17 50 0 68-17 0 0 92-75 110-83 24-9 50 0 67-17 8-8 8-17 17-25a64 64 0 01 42-17c40-25 58-67 83-100a724 724 0 01 118-108c34-25 118-100 135-160a447 447 0 01 60-108c15-24 15-58 23-83 0-42 34-25 60-33 41-17 41-59 33-100 0-42 17-76 25-117-34 25-34-17-17-25 10 0 18 0 18-9 0-25 8-50-8-58-17-9-9-34-9-50 0-17 25-42 42-50 10-9 17-9 17-25 0-9-25 0-25-17s-9-42 8-50c17-25 17-42 0-75-17-25-33-25-42-42-24-25-16-50-16-75 10-50 10-109 10-159 6-50 0-108 0-158 0-17 0-50 6-67 1-8 18-8 26-17 0-17 0-17-10-17s-8-25-8-25c8-8 16-16 16-25 0-16-33-25 0-40-25-35 10-100 10-143 0-25 7-59 0-84-10-92 7-225 7-259 2-58-6-108 12-166 0-9 7-26 7-42 0-17-25-9-17-34 0 0 20-8 20-16v-34c0-25 25-50 16-66 0-9-8-25-8-34 0-8-10-25 8-33 10-9 10 8 10 8 0 8 7 8 15 8 10 0 85 42 93 60 8 7 17 16 25 7 10-8 0-25 0-33s-8-25 0-34c0-8 10-33-8-25 0 0-10 17-25 17a317 317 0 01-50-17c-10-8-10-33 0-33 16-8 16-33 8-42-9 0-9 0-9-8s8-8 8-8c10-17-8-17-16-17h-42c-17-8 0-25 0-34 0-10-9-40-9-50s25-18 34-18c14 0 23 17 23 25 7 17-10 17-18 25-8 17 18-8 26-8s8 17 25 17c10 0 34 8 34 25 0 1-8 10-8 17 0 10 8 10 16 10h17c10-9 0-9 0-17 0-8 10-34 17-42 10-8 17-17 17-33s-10-16-19-24c-8-10-8-26-17-35 1-8-24-16-24-25a252 252 0 01-67-33 34 34 0 01-17-30v-43c0-8-8-17 0-25 10-9 10-25 0-42-16-25-16-58-16-75 0-8 17-25 17-34 8-18 25-10 33-18 17-8-8-25-8-34a249 249 0 01-25-100c0-26 25-34 50-34 10 0 26 17 34 8 17 0 0-17 0-25s17-17 17-33c0-9-17-17-17-25-8-25 34-42 50-34 10 0 18 10 27 0 8-9 8-17 0-26-8-16-34-16-42-40a80 80 0 01 17-76c8-9 17-17 17-34v-50c-19 8-19-17-28-33-8-15-17-23-17-39s12-33 28-33 42 10 33-16c-8-19-42-27-42-50-8-10 10-19 0-36 0-7-17-7-25-15-9-9-9-92-9-100 0-17 17-17 17-26 0-8-8-16-8-25 0-10 8-18 8-18 10-9 34-17 34-34 0-8 0-33-8-33 2 0-15 8-24 25 0 10-17 34-25 18-8-9 8-25 17-25 8-17-9-17-9-34 0-9 0-26 10-34 7-9 16-34 24-34 10-8 26-8 26-25 7-17 0-17-18-17h-8c-8-9 0-9-8-17-9-8-17 0-17-17a115 115 0 01 0-75v-42c0-17 17 0 17-17s0-25 7-34c0 0 10-8 10-16 0-25-17-17-34-25-9 0-9-42 17-50 16 0 32-17 32-25 10-9-8-9-8-17 0-10 10-10 10-18h-19c-9 0-9 0-17-8l-26-25c-8-9-8-25-8-34 0-7 8-57 8-74 0-25 26-33 26-58a198 198 0 01 16-75v-9c10 0 10 10 10 0v-16c0-9-18-17-18-25l-17-25c-5-9 13 0 13-9 0-8-10-8-10-8l10-17c-10 0-10-9-10-9 10-9 17-9 17-17 0-10-8-10-17-10 0 0-7 0-7-8l-10 10v-17s18 0 10-8c2 0-16 8-16 0 0-9 8-9 17-9 0 0 17-25 17-33l15-17c8-8 0-25-9-8l-8 4c0 10-17 0-17 0-10 0-10-8-10-8v-243s10-7 0-15c0-8-7-25-7-33-8-10-8-10-8-18 0-8 0-8 8-17l8-8c0-8 0-25-8-25-8-8 8-33 8-50 0-25-8-50 0-75 0 0 0-9 10-9h7c0 10 10 10 10 10h18c8-10 8-10 8-18-2-8 6-8 6-17 0-8-8-8-16-8-10-8 0-8 0-17 0-9-17-17-26-26-7-8-16-16-24-33 0-8 0-25 8-25h17c15 0-2 8 8 17 7 8 16-17 16-17 0-10 8-27 0-36 0-8-10-25-10-33 0-17-16 8-16-17 0-10 0-26-8-26 0-8-17-8-10-16 10 8 10 8 18 8 10 1 10-7 17-7 0 16 17 0 17 0v16h17c8-8 0-8-8-8-10-8-17-17-10-17 10-8 18 0 18-16 0-9-8-17 0-25 8-17 34-9 34-25-10 0-10 0-17 8-9 10-9 0-9-7-7-9-16 0-24 0s-60 0-60-9c0 2 10 2 10-6 0 0 0-8-9-8 0-9 8-26 8-34h17c10 0 10 0 10-17 0-8 16-16 16-25 1-8 26-16 26-16 8-9 0-9 8-17 10 0 34-10 17-27 0-8-18 0-18-8 0-18 0-26-8-43 0 0-8-9-8-18 0-8 0-8 8-8 0 0 8-10 17-10 8 0 8 10 17 10 8-10 17-28 8-37-8-8-25 0-34 0v-10l-8-10c-8-10 0-10 8-18 10-9 0-9 0-17 0-8 26 0 34-17 10-8 26-8 26-16 0-17-17-9-17-25 3-9 3-25 11-34v-16c0-8 8-8 8-8 10-8 10-25 10-33-10-10-18 0-18-10v-8h-8l-9-8c0-9 18-42 18-50 0-9 8-9 17-9 8 0 8 0 8-8h-34l-8-8c-6 0 2 7-6 7-9-7-9-7 0-16l-9-17s-8-8-8-16c0 0-9 0-9-17 0-10 17-19 26-27l50-50c10-8 17-17 0-25 0-8-8-25-17-25-8 0-8 0-17-8l4-17c0-9 0-26 8-26 0 8 8 8 17 0 8-9 17 0 25-9 0-8-8 0-8-8s8 0 8 0c10 0 10-16 0-16 0 0-8 8-17 8v-17c-8 0-25-17-25-25 0-17 17-17 34-17 8 0 17-17 17-26 8-16 0-25 0-40 8-10 16-10 25-18l8-25c0-6 0-23-8-23 0-8-10-8-17-8-7-9-7-42-7-50v-33c0-8 16-25 16-33 0-9 10-34 0-42 0 0 0-25-8-25s-7 0-16-8l-8-10s8-9 8-18c0-8-8-25-8-33l-10-9s-8 16-17 25c0 0-8 8-8 0 0-9 0-9 10-9 8-16-18-33-18-25 2 0 2-8 2-16a610 610 0 01 7-50l8-9s-8 10-17 10c-6-10 20-18 20-26 0-9-9-9-9-9 0-8 8-8 8-17-8-8-17 0-17-8l-24-8c-8 0-8 8-8 8s-10 18-17 18v-17c0-8-16-17-7-25 0 0 8-8 0-8 0 8-10 8-10 0-9-9-2-25 7-34 0-7 10-7 17-7v-8c0-9 10-9 10-17v-17c0-8-10-8-10-8h-10c0-9 8-9 17-9 8-17 0-25 8-42v-17c0-8 0-33-8-25-10 0-10 17-10 0-7-8 0-25 0-42 0-8-7-16-7-33v-18c0-8-17-8-17-8 0-9 8-9 0-18 0 0-8-8-17-8-8 0-25-17-25-17s-18-25-26-25c-10 0-17-17-26-17-7-16-16-8-32-16-10 0-34-9-42-9-10 0-17-16-26-16-8 0-34-17-50-17-18 8-44 0-77-8-10 0-17-10-17-10-8 0-17 10-17 17-8 8-25 0-34 0-17 0-25 8-42 8l-110 10c-8 7-8 24-25 15-8-8 0-25-17-25h-31s-27 10-35 17c-8 8-25 8-34 17h-43c-16 0-24 8-40 8s-26 17-35 17c-8 8-25 8-33 8a46 46 0 00-43 26c0 10 0 10-8 10h-10c-8 0-17 15-25 24-10 8-25 8-34 16a223 223 0 01-67 25c-10 10-76 60-76 67 0 8-18 17-26 25a895 895 0 01-103 84 64 64 0 01-32 16c-17 10-10 25-17 34l-42 23c-10 0-10 8-10 16-6 17-15 17-23 26a582 582 0 00-66 83c-10 8-44 58-77 75-10 8-17 50-26 60 0 7-8 7-8 7-10 0-35 42-35 50 0 0-17 0-17 7-8 25 0 42-16 50a344 344 0 00-60 92c0 8 10 25 10 34-2 16-44 58-36 66 0 0 17 0 17 7s-17 16-25 16c-10 0-10 0-10 10 0 7 10 7 0 16 0 8-7 8-7 24 0 25-17-8-17 10 8 0 8 0 8 7l-16 17c0 8-10 42-10 50s0 17-7 25a272 272 0 00-26 42v41c-8 10-8 10-16 10-10 0-17 24-26 66 0 8-34 117-34 125h7c10 17-17 33-8 50 0 5 0 72-10 90-8 0-8 0-8 7s0 8 8 8c10 0 17 25 10 34 0 6-18-2-18 6-10 8 17 8 17 17 0 8-10 0-17 8-10 8 0 34 0 42 0 17 0 83-10 92 0 8-32 50-32 67 0 8 17 25 17 33 0 17 8 58 0 67 0 8-10 8-10 8-7 20-7 61-7 61a240 240 0 00-17 75v75c-10 0-10-9-17-9-10 0 0 10 8 10l10 8c0 8-10 0-18 0-10 8 0 34 0 42s-10 25 0 25c8 0 17 0 17 7v17s-10 0-16 8c-10 17-10 34-10 50 2 10-6 25-6 34v41c0 10 8 10 8 17 0 0 0 25-16 25-10 0-10 8-10 8v42l-8 125c1 10-9 60-9 76 0 8-14 33-6 50a25 25 0 01 10 16v42c-9 0-9-8-17 0-12 0-2 8-2 17 0 17 8 25 0 42 0 16-10 75-10 91 0 17-7 60-7 75v94c1 10-25 17-9 25 0 0 10 0 18 10 0 6 0 6-8 6-10 0-10-8-10 8a190 190 0 01-8 36c0 8 17 0 17 8 8 3 17 12 0 12-10 0-10-10-17-10 0 0-17-8-17 0 0 0 7 8 7 17 10 8 10 17 17 25 0 8 0 17-8 25-10 17-10 17-10 33 0 17 20 25 20 42 0 8-25 8-25 8-10 1-18 11-10 18 27 8 10 17 18 34 0 8 10 24 17 24 10 42-8 76-8 92a140 140 0 01-26 50v101c0 8-8 8-8 16v100c-8 17-8 50-8 60-10 0-20 0-20 7-10 10 26 25 26 34v16c-8 0-17 0-17 10-8 7-8 24-8 32v67c0 33-17 58-17 67v100c8 8 8 25 8 33-7 10-24 0-24 17 0 0 16 8 16 16 0 11-17 11-17 18v25c8 10 8 0 17 10 0 0 17 24 17 32-10 17-25 8-33 8s0 10 0 10c0 6 0 123-8 140 0 8-17 66-17 75-10 8-10 25-10 33 0 10 18 25 18 34 0 10-17 18-17 18v25c0 10 10 10 17 10 10 7 10 15 0 15 0 10-8 10-17 10 0 0-17-10-17 0-8 40 10 74 0 74-8 17-8 125-8 142-8 8-17 16-17 33 0 8 17 25 17 33 0 16 0 33-8 40-17 26-10 100-17 110-10 16-10 133-17 158a230 230 0 00 0 75c8 17-17 76-17 92 0 10-17 134-17 142 10 17-8 34-17 50-8 17 0 17 10 34 7 8 0 25 0 40 0 11-18 144-18 151v51c0 10-17 18-17 27 0 8 10 8 10 16 0 17 0 50-10 60-7 7-33 24-7 40 8 0 17 26 8 34 0 8-8 0-8 0 0 8 7 8 7 8 10 10-8 42-8 60v74c0 67-27 225-27 250-8 50-25 100-25 160 0 57 0 116-10 166a1027 1027 0 00-16 150c0 57 0 116-10 166l-24 75c1 18 11 51 1 68a2647 2647 0 00-17 260 557 557 0 00 0 166c0 33-8 50-8 83 0 50 8 92 34 142-24 50 0 142 10 160zm-12063-1872c17-33-16-25-33-16v-9c-60 25-118 34-177 50-60 17-110 42-170 67a106 106 0 00-50 34c-16 16-41 16-60 25a414 414 0 00-57 25c-26 8-43 8-68 25a224 224 0 01-50 40c-17 10-34 27-51 35-8 8-25 8-34 17l-25 25c-67 50-135 100-194 170-34 40-59 70-93 90-25 40-42 70-67 100-8 9-8 17-17 25-8 10-17 10-25 18-17 17-25 25-34 50-17 42-34 67-50 109-26 40-34 90-51 142-17 40-42 83-50 125-10 25-17 50 0 75-34 33-43 83-50 133-10 59-27 117-43 176-26 90-34 192-43 292-8 90-8 174-16 258 0 40-9 83-9 133 0 17 0 50-8 67 0 17-17 42-17 58 34 0 17 59 17 75-9 36 0 60 0 94 8 85-9 160-17 243 0 93-25 185-17 277 0 25 10 50 10 75 0 25-10 42-18 67 0 50-17 92-17 142 0 50-17 108-9 158 0 50 10 109 0 159 0 50-8 100-8 158 0 50-9 92-17 142-8 59-17 109-17 167v83c-8 26-25 40 0 59-25 17-17 75-25 109 0 25-9 58 0 90 0 10 8 27 8 35 0 17-8 17-8 25s0 25-9 42c-8 25-25 40-33 67-17 40-17 100-42 140-50 0-43 127-9 135 10 17 17 50 0 67 26 16-34 66 10 75 7 17-50 200 0 183 16-8 0 67-10 76-17 25-42 33-42 58-8 33 17 50 25 75 17 50-25 92 10 125 24 25 16 17 16 59 0 7 8 24 0 32 0 17-9 17-17 25-9 25-9 42-17 67-9 17-17 42-25 58-10 25-10 50-10 76 0 25-9 50-9 75 0 25 10 50 0 75 0 26-17 43-25 68-9 33 8 33 25 58 10 17 10 42 17 58 25 50 17 100 10 150v18c7 42 15 84-18 126-17 25-17 16 0 50a353 353 0 01 17 90c0 50-17 100-17 143 0 49 0 99-9 149-8 42-42 68-50 117 1 26 1 50-8 76-7 25-16 33-7 58 17 34 34 42 34 84 1 25-8 50-16 75-9 50 8 100 8 150 0 50 8 100 0 150-8 50-8 100-8 159 0 50 0 108 8 158s0 109 17 150l25 50a181 181 0 01 10 68c7 26 16 42 24 59 0 16 0 24 10 40 8 9 25 9 33 17a105 105 0 01 10 50 153 153 0 01 15 43c17 33 34 33 50 58 10 8 18 25 35 33a116 116 0 01 25 33c2 0 10 25 10 17l17 17c10 9 26 17 34 26 8-10 17-10 25 0v33c25 9 42 25 68 34l76 25c8-34 84 8 110 8 50 0 100 0 142-8 10 0 19 0 28-10 8 0 8-7 25-15 17-10 50 0 67 0 43-10 76-34 118-42 26-8 76 0 85-34 17 0 42 0 59-8 8-33 100-25 135-42 33-25 67-41 110-66 16-10 33-25 50-34 8-8 17-8 25-8 10-1 19-18 27-18 9-8 26 0 34-8 9-11 9-18 17-26l50-25c17-18 34-18 50-26 26-10 26-17 43-42 9-17 26-17 42-33 17-14 26-31 50-40 18-10 52 18 68 9 26-8 10-33 17-58a184 184 0 01 25-42c43-41 93-82 135-133 17-16 17-25 34-50l44-41a534 534 0 00 68-117c17-42 50-67 67-110 17-41 34-75 50-117 10-25 33-108 60-108 0-17-10-25 0-42 0-7 7-32 16-41 8-33 16-58 25-91l25-165c0-50 9-110 17-160 0-50 8-100 0-141-8-26-8-51-8-68 0-16 8-33 16-58 9-50-8-92 9-142 25 0 42-50 42-75 8-42 0-67-10-100-7-24-24-74-15-100 8-25 17-16 33-33 9-25 0-25-25-25-8-33 0-92 0-133 0-50 0-92 8-142v-276c0-25 26-50 17-67 0-16-50-41-8-50 8-25-10-50 0-66 0-25 8-50 8-76v-140c0-50 9-100 9-150 0-50 8-100 0-160 0-33 0-50 25-74-25-17-17-50-17-75 50 0 17-76 17-110 0-50 0-100 9-140 8-43 42-68 42-110 0-24-17-33-26-50-10-16-10-41-10-66 0-50 0-100 9-142 8-42 25-84 25-125-10 0-17-10-26-17 8-10 16-17 16-34-25 9-34-17-17-26-1 0 8 10 16 10 17-11 9-53 9-78s17-50 17-76c-34-16-17-40-10-66 0-25 10-25 18-42 8-17 17-17 17-42 50-16 8-66-25-75 0-25 33-17 50-33 25-25 8-34 42-34 9 0 9 17 26 0 8-8 16-16 16-33 0-15-25-31-25-56 0-26-8-42-8-67-10-25-17-42-10-67 0-25 18-42 27-58 8-26 0-50 0-67 8-34 50-42 75-67 26-25 9-33 0-67-8-17-8-58-8-75-3-17 5-58 5-75 17-33 34 0 60-25-17-18-43-10-51-35-10-16 8-50 17-66 25-34 67-34 92-75-25-25-33-42-25-75 0-42 9-60 25-92 17-25 26-50 43-84 16-25 16-67 59-67 8-16 8-40 16-58a255 255 0 01 43-58c25-42 59-75 84-117a860 860 0 01 84-100c34-34 50-67 84-110 26-32 50-82 76-116 17-25 50-25 50-58 17-10 17-17 25-25 9-10 34-10 42-10v-7l-10-8c18-17 35-17 52-34l50-50c9-8 9-8 17-25 8-16 8-25 25-33 18 0 27 8 35 0 8 0 17-17 17-25 17 7 17-18 25-26 8-10 34-10 42-25l-10-10 77-50c17-7 59-32 67-57 25 0 76-34 93-50 25-34 67-60 92-84l43-40 17-18c8-10 25-10 33-17 17-8 26-33 42-42 17-15 43-24 60-32 25-17 75-42 100-67 26-25 43-58 76-75 9-8 17-8 26-8 0 0 8-17 16-25 17-11 34-11 50-26 60-34 85-142 153-150l42-110a173 173 0 01 34-50c17-17 33-17 50-34 17-16 17-40 17-58l25-50a307 307 0 00 34-125c-50 8-8-126-8-150 0-34 0-42 8-76 8-25 8-58 17-83-17-9-25-42-25-59 0-25 17-25 17-50 0 0-10-8-10 0l-24-58c-10-9-17-18-25-18-10-8 8-8 0-17l-17-8c0-8-10-17-10-17l10-8c-10-17-14-8-14-25-10-17-26-33-34-50-8-8 0-25 0-33s-17-16-17-24c0-34 9-34-8-67-10-17-26-25-42-42-17-17-17-33-34-50-10-7-17-16-17-24-8-8 0-25-8-34a223 223 0 01-43-50 163 163 0 00-92-77c-17-7-34-24-60-32-25-6-51-15-76-15a447 447 0 00-152-33c-8 0-17 8-25 8h-44c-26 0-42 8-60 8-33 0-50 0-75 18a261 261 0 01-70 17c-25 0-33 8-60 17-7 8-24 8-32 8 0 0-10 0-16 8-8 10 0 17-8 17-20 10-45 27-71 19-16 0-33-24-50-8-16 10-16 25 0 34v26c-16 0-25 17-42 17a88 88 0 01-16-42h-11c0 10-6 18-6 18-17 10-26 26-51 17-1 17 16 17 33 25-17 17-42 25-68 34-8 8-8-17-25-17-8 0-17 8-25 8-10 0-26 10-34 10-17-1-34 14-50 23-17 8-43 0-50 25-50-10-35 40-60 58-25 26-76-7-100 0-10 9-18 18-35 9l-2 17c-42 0-84-8-76 42 17 8 34-17 50-17 18 0 10 17 10 25a504 504 0 01-120 17c-50 0-93 25-110 25-33 0-33 43-67 59-42 25-93 25-143 42-50 8-93 50-152 59-25-1-34 7-59 15-34 17-42 17-67 9-26 0-85 0-93 25-76 8-160 8-236 16-34 9-76 9-110 17-42 8-67 17-100 25 0 50-18 68-35 59zm13369-8730c17 33 17 58 25 92a100 100 0 00 9 50 115 115 0 01 25 33c25 67 76 92 126 134 26 25 42 42 76 42 42 0 60 8 93 33 50 42 118 33 177 50 50 17 100 8 143 17 42 8 60-9 93-25a54 54 0 01 50 0c26 0 17 8 34 16 25 17 68 9 93-8 17-8 17-17 34-25 42-17 110-33 143-67a220 220 0 01 67-58c26-17 68-9 85-25 17-9 17-25 25-42s25-25 34-33c33-17 67-42 92-59 60-42 110-83 160-133 26-25 43-59 60-84 16-25 33-58 58-75 17-17 34-50 50-75 26-42 69-67 94-100 33-34 50-67 76-109 25-33 50-25 84-58 17-17 8-25 8-42s10-25 17-42l34-33c8-17 8-33 25-42 10-17 26-17 34-33 8-17 0-34 8-50 0-9 17-17 26-25l-10-34c7-25 7-50 15-75a250 250 0 01 34-83c17-25 34-42 50-59l10-25c1-16-9-8-9-25v-33a71 71 0 00-24-50c-10-9-10-9-10-25 0-9 18-9 10-25-34-9-26-76-26-100v-59c0-25-17-25-34-42a10659 10659 0 00-33-33c-10-17-17-25-17-42a114 114 0 01-24-33c-10-17-26-34-34-50-8-17-8-25-17-42l-24-25c-18-17-18 0-35 8-25 17-67 17-93 17-17 0-33-17-50-25s-28-8-44-17c-17 0-26-16-42-25-17-8-26-8-51-8h-70c-35-9-50 0-77 0-17 0-34 0-50-9-34 0-68 0-100 10-10 0-18 7-18 7-10 0-17-8-26-8a65 65 0 00-41 17c-33 16-60 16-92 25-34 8-51 25-85 25-17 0-25 0-42 8s-25 17-34 17c-33 16-60 8-84 25a130 130 0 01-34 25 275 275 0 00-78 40 87 87 0 00-42 10c-8 16-8 24-25 24-17 10-25 0-34 16-5 8-5 8-14 17-7 8-16 0-24 8a117 117 0 01-34 25c-18 8-26 8-35 25l-17 16c-7 8-16 0-16 8-8 8-8 17-16 25-17 17-26 8-51 17-17 10-17 26-25 34-17 17-42 34-68 59-10 8-18 25-26 33-17 8-34 8-42 17-10 9-25 26-25 34-11 23-1 23-27 30a90 90 0 00-41 18v25s-8 17-17 17c-16 17-32 42-50 67a182 182 0 00-25 40c-8 10-25 18-33 35a63 63 0 00-17 33c-10 17-10 25-17 34-25 25-42 66-60 100l-24 50c0 8-17 117-34 92-8 8-8 40-8 50 0 6 0 14-10 23-6 8-15 8-15 16-8 17-8 42-8 59-10 17-17 58-10 75 10 17-15 42-23 50-7 16-7 33-7 49 7 34-18 67-18 100 0 36 25 44 42 77 8 9 0 50 17 84zm-15737 6302c33-58 8-108-10-159v-58c-33 0-41-50-41-75 0-50-8-75-50-92 0-14 0-22-10-39-7-18-16-26-16-50 0-9-8-18-8-26V15700c-10-17-26-25-26-34-8-17 0-33-8-50l-25-50c-17-32-17-74-60-50 0-7 0-16-8-16-25 9-42-8-60-17-7-1-7-10-16-17 0 0-25 0-25-8-17 0-42-17-60-17-7 0-7 17-16 17-8 0-8-16-8-16-42-17-84 8-127 8-16 0-42-8-67-8s-42 17-67 17h-43c-8 9 0 17-8 26-8 8-60 0-67 0-43 8-85 33-127 50-20 8-40 25-50 33-24 8-41 8-66 25-34 25-68 42-110 67-26 17-51 17-77 42-25 16-42 33-67 50-68 50-127 108-186 158-33 25-67 59-100 84-34 25-77 25-93 67-26 40-43 50-76 83-24 25-60 42-83 58a363 363 0 00-110 167c-8 14-25 22-41 38a220 220 0 00-50 40c-10 18 0 50 0 68 0 32-10 40-18 65a135 135 0 01-34 60c-15 16-24 24-32 40-10 10 0 28-10 36-7 8-16 8-24 25s0 50-8 75c-11 25-27 50-35 75-8 17-8 34-8 42-10 17-17 17-26 25-17 25-8 67-8 92-1 33-10 58-10 92-25 8-17 25-8 40-1 10 7 10 16 19 0 9-10 18-10 26 0 17 18 34 10 50-10 17-26 17-17 42 8 17 25 17 25 33 8 17-10 42-1 59 6 33 23 58 30 92v33s18 17 26 8c0-8 9-8 9-16 16 13 8 29 25 47a144 144 0 00 50 25c16 40-10 58 25 92a357 357 0 00 60 50c16 8 0 16 24 16h43c26 0 60 0 76 25l-25 25c8 0 17 17 25 26 25-10 42-26 68-26 8 0 8 9 16 17 17 0 34 0 50 10 18-2 26 6 43-2 17-10 17-17 34-17v17c30 0 49 25 73 25 16 0 33-17 67-17 17 0 34 8 42 0 10-10 10-25 17-34a163 163 0 01 68-25s-10 9-10 17a55 55 0 00 48 0c-7-25 27-25 35-42 26-8 42-25 68-25-26-50 84-17 92-60 17-8 17-24 34-40 17-18 34-10 50-26 10-8 18-17 26-17 10 0 25-8 25-8 17-8 26-25 43-42 16-6 33-23 50-31 10-8 17 0 25-17 10-8 10-16 17-25 17-17 42-8 68-17 17-8 25-24 42-33 0-8 0-8 8-17 20 0 37 0 54-16 17-10 8-42 34-42 0-16 92-57 92-66-8-25 50-33 68-41-17-17 8-34 25-26 0-16 17-41 34-50 17-22 25-22 60-22a130 130 0 00 91-67c10-8 10-24 17-33 10-8 17-8 26-17 11-26-15-34-15-60 8-24 25-24 50-32 43-10 43-10 60-42 8-16 33-58 50-58 8-25 17-41 25-66 11-10 18-10 18-25 0-10-8-34 0-42 17-17 10 0 25-10 17-6 10-6 17-22 17-42 42-50 68-76 16-25 16-50 16-83 0-35 0-26 27-51 8-8 0-17 8-25h26c0-18-26-18-34-43 0-17 8-42 25-42 0-7-8-15-17-15 0-18-8-43 0-60-67 0-60-10-50-26zm-927 5160c-85 0-85-76-135-117-26-25-34-142 17-142v-17c-17-17-17-25-26-58a412 412 0 01-33-109c-17-67-26-134-60-192a315 315 0 00-84-100c-75-58-84-92-100-92-43 0-77-25-110-33-51 0-101-17-160-17-93-8-186 25-280 50a1570 1570 0 00-462 217c-50 34-85 75-135 100-50 25-93 42-127 84 9 8 17 16 26 16-26 9-50 9-76 26-17 8-34 33-50 50-35 33-94 75-94 116-67 26-117 110-160 167-50 67-100 142-143 217-76 159-126 310-202 476-26 59-50 117-68 175-17 42-8 192-60 200 0 10 0 18-7 18 50 90 0 158-17 258-17 109-34 209-25 310 8 116-26 216-17 325-3 100-45 183-53 284 0 58-50 308 9 333 9 59-25 50-34 92-8 25 17 92 17 125 0 76-16 167-16 242 0 42-10 76-17 117-11 25-1 67-1 92-11 159 7 376-52 518 17 25 0 133 0 175-8 75-25 134 8 192h-8c-17 67 8 150-17 209-118-84-25 158-25 192 0 50-24 83-24 125 0 42 25 83 17 142-10 100-33 180-50 270-17 99-25 190-42 280 0 19-10 44-10 60 10 0 18 8 27 8 8 75-10 150-10 226 0 176-33 326-24 500 0 50-17 93-17 143a424 424 0 00 7 142 213 213 0 01-8 125c-10 42-10 75-10 126 0 90-26 183-26 275v610c-2 50 24 150-2 183 43 33 9 84 17 125 9 34 34 92 42 125a608 608 0 01 34 117c8 42 49 75 49 100 34 16 18 33 34 49 26 26 17 17 60 26 42 16 75 33 117 50 85 40 177 40 270 50 17-2 60 6 68 6 33-7 33-16 67-24 42-17 100 0 143-17 17-8 25-33 42-50 17-15 43-15 60-24 40-16 75-41 109-58a2260 2260 0 00 194-110c34-24 84-50 110-82a290 290 0 01 93-84 770 770 0 00 109-66 1020 1020 0 00 168-160c34-41 26-91 85-66 24 17 83 25 117-8 25-35 0-110 42-143 8 42 34 58 76 67 6-10 39 0 49-10 16-7 16-24 16-40 0-60 34-84 34-100 8-110-68-50-127-42-50 0-24 16-32-34 0-33 0-75 8-100 17-58 60-92 76-142 17-50-17-100 8-150 10-25 26-33 26-67 0-25 8-50 8-83 0-50 0-110 26-150 9-17 26-42 17-67-8-25-25-25-17-60v-7c17 0 17-58 34-75a196 196 0 00 25-100c0-32 10-60 17-90 0-17 42-84 0-75-17-67 17-160-42-217 17-60 42-92 25-150-8-26-8-60-16-84-10-17-10-8-10-25 0-25 26-58 35-83 0-10 17-26 17-34 0-17-10-33 0-50 0-17 8-25 0-42-10 0-10 0-17-8-1-50-11-110-11-160 0-25 16-33 25-58 7-17 7-50 16-67 8-50 8-108 8-150 0-26 8-43 17-68 9-25 9-50 9-75a800 800 0 00 18-160c0-40 34-83 34-125 8-50-10-100 0-150 8-42 42-75 42-117 0-42-17-117 0-150h17c8-25 0-59 0-84 8-16 17-40 25-58 25-42 17-84 34-134 7-50 16-100-1-142-10-50 0-100 0-150 0-50-17-100 8-143 9-8 26-25 26-33 33-58 25-124 25-190 0-26-10-35 8-68 9-17 42-25 42-42 17-33 0-83 0-125v-133c0-59-8-84 9-142l25-134c8-92-17-192-17-275 0-35-8-100 0-135 9-33 42-67 60-100 16-42 16-92 24-134 9-33 34-90 43-133 0-50-34-84-10-142 10-17 35-17 35-50 7-25-10-42-18-67-8-58 8-58 25-117 17-40 9-108 9-150 0-17 8-33 8-50s-25-17-25-34c0-24 8-66 17-100 17-56 50-98 76-156 7-24 32-74 32-100 0-41-50-58-50-100 0-16 10-91 26-117 17-33 42-40 42-66s-17-17-34-25c-25-27-33-77-58-110a433 433 0 01-60-176c-8-42-8-150 26-184 25-40 143 0 135-66" fill="#E10A0A"/><path d="M45517 17420c33-9 67-34 100-50 34-25 195-109 237-126l126-75c76-50 143-133 228-167a104 104 0 00 42-25c-8-16 34-58 50-66 26-17 76-17 60-59 33-17 33-17 60-42 15-16 50-25 66-41a720 720 0 00 84-134c26-42 50-50 68-92 8-25 25-50 33-66 10-17 17-42 26-59 0-8 0-25 8-25 17-8 17-8 25 0 10 8 26 58 50 25 18-17-24-50-24-75 8-17 17-17 25-33 0-17-8-25 0-42 25 0 50-17 50-42-15-33 27-108 63-75 7 8 0 25 15 25 18 0 18-17 18-25 8-25-9-42 0-58 8-26 25-34 34-50 16-26 8-50 8-76 0-16 60-25 67-16 17 0 50-25 50-42-7-8-39-17-49-25-8-17 0-50 0-75-25-11-50 30-67-3-25-33 42-42 50-58 10-17 0-17 0-25 0-34 0-42 34-50 17 0-17-10 0-25 10-10 17-17 17-26 0-25-10-8-26-16-17-10-50-25-50-42s32-25 23-58c-8-25-33-17-42-42 0-8 10-25 0-34 0-15-17-15-17-24-8-16-8-41-8-66-32 0-15-34-32-60-8-15-33-15-50-40s-34-25-34-50c8-32-8-32-25-50-10-15-27-32-35-57-8-34-17-34-42-50-8-6-17-23-34-23-8-10-8-10-25-17-26-8 16-25-9-33-26-10-17-34-43-42-17-8-42-33-67-25 0 17 25 17 25 33-25 9-67-8-84-33-8-27 0-52-34-61-17 34-33 0-59 0-8 26 17 34 34 50-34 8-50-1-84-10s-60 0-93 0c-34-7-60-15-93-24-25 0-50-16-93-8-33 0-50-25-84-25s-66-17-100-17c-76 0-152 17-228 17-16 0-25-10-42-10-25-1-42 9-60-1-7-1-16-8-24-8a63 63 0 00-34 16c-25 8-50 8-76 17-42 16-92 16-134 25a849 849 0 00-135 40c-17 10-34 0-43 26-84 34-160 59-244 100a883 883 0 00-118 68l-42 42c-8 8-8 17-25 17 0 0-17-17-26-17-25 0-60 42-76 50 0-8-7-8-15-8-10 33-76 50-101 58-43 17-68 42-110 59-35 17-68 40-102 59-42 34-101 50-144 84-16 9-33 9-50 17-17 9-17 18-25 35a91 91 0 01-51 16c-7 25-66 25-60 50-6 9-15 9-32 0-25 25-60 25-92 50-17 9-26 25-43 34-16 7-33 7-42 16-25 8-76 24-92 40 0 0 8 20 0 28-17 9-10-8-17-8-17-1-42 16-50 24 8 17-26 25-43 25h-34c-8 0 0 17 0 17l-17 9c-25 18-50 18-75 34-17 9-43 17-60 26-33 28-84 36-117 50a517 517 0 01-120 59c-16 9-33 9-58 18 0 33-93 40-118 50-34 17-85 25-127 40a993 993 0 01-270 77c-32-4-66-14-91-14-26 0-60-24-85-24v-16a202 202 0 01-92-51c-42-42-17-76-51-100-16-18-66-27-83-18-26 16-42 0-42-25 0-10 8-17 17-25 0-10 8-25 8-34-11-42-27-8-52-17-26-8-26-41-17-75 0-8 8-8 8-8v-67c-34 0-17-50-50-33-11 25-35 33-52 25-34-8-17-25-34-42 8 0 25 0 25-8 0-20-17-20-17-20-15-17-24-33 0-33a132 132 0 00 94-84c9-25 9-50-8-58-10-10-26 0-34-10-8-7-8-15-17-24-16-9-41 16-60-9-6-17 10-50 0-75-65 5 36-87 28-100-17-10-43-10-68-20-25 0-60 10-60-16 0-8 18-16 18-16 0-17 0-17-8-34-10-25-17-16 0-42 16-25 16-33 16-58 0-42-17-33-25-58-8-17 0-50 17-59 34-16 34 25 60 17 16-8 24-50 24-58-8-34-25-17-60-17-41-8-75-75-41-109 17-16 50 0 68-16 33-34-34-17-43-25-25-9-17-34 9-42 25-8 50 17 67-8 9-10 0-29 0-37 0-8-8-17 0-25 0-25 9-50-33-42-34 10 0 25-17 60-15 15-50 15-50-10 0-8 18-16 18-25 8-16-8-16-8-33-10-25 0-42 0-67-10-17-17-50 16-33 26 8 26 50 50 17 18-25 10-90 10-116v-50c0-17-16-25-25-50-8-26 0-26 17-42 8-17 17-34 17-50-1-17-1-60 33-34 10 10 0 42 0 60 0-10 18-26 27-35 8-25 8-16-10-33-7-17-16-8-16-34-8-24-8-24-16-40-17-17-10-17-17-34 0-16-17-33-17-50-8-58 42-16 50-50 0-33 36-42-6-58-25-10-67-17-84-34-17-16-10-16-10-40 0-10-7-35 0-43 0-19 18-27 18-44 0-16-25-16-17-40 17-19 50 0 68-28 17-33-17-25-34-40-26-18-26-35-26-60v-33c-1-9 16-26 16-26 0-25-10-8-17-17 0-8-26-17-10-33 9-10 49 6 76 0 34-19 17-27 9-50-10-27 0-44-34-60-34-9-42 0-50-34-11-34-1-67-1-100-1-59-11-117-11-167 0-60 10-118 10-168v-176c0-58-16-125 0-183 0-17 26-50 26-67-1-8-18-17-18-25 0-16 0-99 17-107 16-15 49-7 66 2 25 10 67 17 34-16-17-17-42-17-60-42-8-8 10-17 0-25-8-8-24 17-33 0-8-8 0-67 0-83 0-42 9-34 42-42 26 0 50-8 60-42 14-42-12-33-37-42-34-8-60-16-68-50-17-40 0-117 9-158 25 0 42 16 59 8 26-7 17-16 43-7 17 8 25 25 42 8 0 1 0-24 8-24l17-17c-50-18-42-18-42-68a122 122 0 00-25-76c-17-25-34-33-17-66 8-16 17-8 17-33a170 170 0 00-17-50c8-8 50-8 33-25-8-17-50 0-50-25-13-25 29-8 37-25 19-16 10-40-6-57-10-26-34-17-26-50 0-17 9-42 42-42 17 0 34 25 50 25 27 0 27-25 19-50-42 40-17-34-60-34-24-40-16-108 0-142 18-25 10-33 10-58 0-8 8-17 8-25s17-17 8-33c-17-25-67 50-84 66-7 10-24 42-50 25-16-8-10-58-10-66 9-17 18-17 26-34 9-15 0-39 0-49-33-17-25-25-25-58v-70c0-58 0-100 17-158 7-9 16-42 33-50 17-10 17 8 34 8h34c8 0 8-17 25-17 17-8 34 8 42 0 9-8 17-17 9-25-10-17-17 0-25-8-26-8-17 0-26-25a117 117 0 01-17-50c-8-42-17-67 0-92 9-17 34-8 34-50 0-17 42-17 17-34-17-16-50 9-76 0-34-8-25-58-42-83a150 150 0 01-42-60 337 337 0 01 0-157c25-1 84 16 93-10-26-33-26-83-60-100-14-8-56-8-73-16-10-17 0-50-10-67-7-50-41-84-24-125 8-17 25-50 17-67-17-25-17 42-50 25-12-42-21-67-21-110 0-32 0-32-24-50a24017 24017 0 00-50-48c-17-25-26-25-17-50 0-10 16-30 16-50 0-65-50 10-60 35-32 0-66-75-83-92a195 195 0 00-58-58 172 172 0 01-60-50c-92-42-184-75-277-110a432 432 0 00-143-24c-60-8-118-16-177-16h-160c-51 0-110 25-160 33a410 410 0 00-60 26h-33a120 120 0 00-50 17c-35 0-60 0-85 8-26 8-50 25-76 33-42 18-93 18-127 43-25 17-33 34-60 42-32 17-66 25-91 42-42 25-93 40-135 66l-253 149-126 77a313 313 0 00-110 75c-17 18-8 43-25 59a226 226 0 01-68 59 338 338 0 00-112 108c-26 34-42 67-76 92l-50 50c-24 17-41 17-66 42-60 58-144 108-177 192 8 8 0 8 8 17-25 8-17 25-33 40-15 10-32 0-50 26-24 25-24 67-50 92-25 33-67 49-100 74a175 175 0 01-50 36c-27 16-27 25-43 50a320 320 0 01-110 75c-42 18-76 43-118 59-25 9-50 9-76 17a150 150 0 00-60 44c-16 8-41 25-66 25-26 8-60-8-85 0-50 8-76 33-135 8-17-7-43-7-68-16-25-8-42-16-67-16-34 0-68 17-110 8-34-8-34-25-42-50-10-24-25-41-50-41-35 9-27 17-60 0a234 234 0 00-152 9c-26 8-43 25-60 33-25 19-25 27-42 44-42 25-118 8-160 0-50-17-110-17-160-17-110 0-228 17-330 42l-151 50c-26 7-42 16-68 24-17 0-25 8-42 17-50 17-83 59-134 76a427 427 0 00-135 75c-27 17-60 33-77 50-8 7-8 16-16 24-10 8-26 0-34 8-8 9-8 17-17 25-8 9-25 9-42 17-17 9-17 50-68 68-50 17-76 83-120 125-24 33-50 75-83 109-25 33-50 75-76 108a768 768 0 00-60 117 901 901 0 00-65 125c-16 42-33 92-50 134a832 832 0 00-92 284c-10 58-26 116-26 175a945 945 0 01-7 159 2112 2112 0 00-25 325c0 94 8 177-17 269-17 59-10 142-10 209-7 67-16 133-7 200 0 68 0 143-10 193-8 17-8 17-8 42 0 9 17 26 17 43 0 16-10 33-10 50 0 25 10 33 10 50 0 66-10 133-18 200-8 69-8 136-8 200 0 77-17 144-10 210v40c10 10 10 0 0 20 8 40-18 50-26 100 0 25 8 66 8 100 0 42-8 75-8 108 0 34-10 92 8 117-25 17 0 42 10 59-35 25-27 83-27 125 0 25 0 42-8 58-8 25-34 50-25 84-1 8 24 16 24 33s-17 25-17 42c-8 42 0 83 0 125 0 34-8 67-8 100-10 67 0 142-10 210-7 66 18 140 0 216 0 25 0 33-7 58-10 26-10 26-10 50 0 50-7 100-7 142 0 42-8 92-8 142 0 25 0 42-8 67s-17 50-8 75c8 0 8 9 17 9-10 8-10 8-10 16 18 25 0 92-7 125 0 34 17 100-17 109 8 0 8 8 17 8v109c0 15-17 39-10 65 50 8 10 50 0 75-17 33-8 67-8 100 0 75-10 150-10 217 0 33-7 58-7 100 0 34-17 67-17 92l17 42c8 16 8 33 8 50 0 33 0 67-8 100s-8 83-8 117c0 25 0 50-10 75 0 33 10 42 18 67 0 25-8 25-8 40-10 35-10 77-10 110 0 25 10 50 10 75v83c8 50 16 135 33 193 0 9 17 9 17 17v25l25 50c10 26 17 60 34 93 34 75 68 84 127 125 60 42 100 84 177 92 33 0 60 9 92 17 17 0 34 8 50 8 18 0 26-8 43-8 68 0 127 25 186 8 67-16 134-8 210-33 68-25 127-60 194-75a132 132 0 00 68-42 109 109 0 01 85-31c33 0 42-42 60-50 16-10 24 0 41-10 17-7 25-24 42-32 42-25 84-34 127-50 25-7 33-23 50-40s42-25 67-42c10-8 17-17 34-25s26 0 42-17c10-8 10-25 17-33 10-8 17-17 34-25 17-17 50-50 50-75h10c18 25 94 8 68-17h-15c-43-50 75-41 92-75 10-17 10-75 10-92s-10-26-10-34c0-17 10-25 0-34a32 32 0 00 17-10 80 80 0 01 17-31c17-16 25-8 42-8 50-16-17-16-17-50 0-7 17-24 17-40a64 64 0 01 8-42c8-17 16-10 25-25 8-17 0-34 8-42 93 8 26-33 42-58 10-17 34-34 50-50 10-10 35-17 43-26 17-33-17-24-17-41 10-42 34-25 68-25 0-42 17-67 8-110-8-32-25-40-50-74-26-25-17-58-17-100s-33-67-25-110c34-15 26 93 76 100 42 9 17-33 10-50-18-25-18-33-18-66 0-17 0-17-10-34-7-16-15 9-15-16s33-42 42-67c0-8 17-58 17-67-2-8-20-17-20-25-10-18 0-18 10-34 18-34 70-50 70-92a159 159 0 00-26-67c-6-8-50 17-31-25-17-8-110 17-93-42 17-33 76-8 100-16V16700c-16-17-16-8-33-8-33-17-25-34-42-67-7-25-33-42-7-67 17-8 33-8 33-25 10-25-25-34-33-50-10-34 42-34 67-42 34-17 42-67 34-100-10-5-17-5-34-5 0 0 0 8-8 8 0-7 0-7-10-16-24-8-24 34-50 42-16 16-40 7-40-26 0-17 41-34 41-50 0-25-42-10-50-34 0-16 16-50 24-75V16100c0-50 0-110 10-160v-132c0-34-19-84 0-117 0-15 6-23 15-40 0-17-10-33 0-50 0-25 0-25 25-25 18 0 35 8 60 0 8-33-34-33-17-58-16-10-16-26-33-34-16-8-16 0-33-25-17-42 25-50 25-83-60-10 35-67 43-67 17-25-17-17-17-34-8-16 10-33 10-50 0-7-35-90 7-50 25 18 10 76 17 100 25 10 42 0 60-7 20-17 30-17 63-33 43-17 34-25 0-42a89 89 0 01-42-17c-8-17 17-34 17-50 0-10-10-50-10-60-10-15-35-23-27-40 10-25 34-17 43-33a90 90 0 01-26-60c0-7 17-15 10-24 0-2-26-11-26-18-42-17-75-42-84-84-23-17-32 0-32-33 0-17 17-34 17-50 0 0-10 0-10-10 0-14-8-50 0-65 18 0 43 18 68 18 28 0 50-17 19-25 0-42-35-50-50-75 23-26 140-1 89-68-16 8-32-8-16-17 10-10 43-1 50-1 68 7 35-61 60-85 33-25 0-58-10-92a111 111 0 01-16-40c-17-16-42-33-50-50 13-16 21-33 13-60 0-31-25-23-25-50-10-23 8-40 0-65-10-17-26-42-26-58 0-34 44-75 70-75 32-3 100 22 116-21-17-16-25-33-50-41-27-8-50 0-78-17 34-16 85 0 102-50 8-32-26-15-34-40 0-26 34-17 25-50 10-10 42-17 42-34 0-25-33-17-50-17-50 8-100-17-68-67 10-17 0-17 16-25 10-10 26 0 26-10 16-24-26-32-17-57 10-25 110-8 50 50 10 8 35 8 43 0 26-8 17-8 26-25 16-17 58-42 40-67-16-25-60 0-75-25-17-25 25-58 34-75 25-8 42-25 42-50 8-34-26-42-26-67 0-8 17-17 17-25v-125c0-25 10-60 0-75-8-35-25-26-8-60 0-8 8-25 17-25 17-8 33 17 42 9 17-10 0-26 8-34 0-7-10-7 0-16 0-8 15 0 15-8 17-25 10-42 10-67 7-25 16-41 24-66 8-50 34-100 8-150-8-24-17-40 17-60 15-6 40-14 66-31 42-25 75-42 110-76 33-33 40-83 33-133 0-17-50-42-42-60 0-5 25-5 34-5 16 9 8 26 16 34 18 26 27 9 44-16a537 537 0 01 67-75 681 681 0 01 118-100c15-17 40-26 57-42 17-17 34-25 50-34 34-31 34-100 43-140a247 247 0 00 100-58c26-25 10-17 10-50 0-22 8-22 16-50 8-14 17-22 34-50 17-14 33-22 50-31 26-25 26-25 60-25 67-8 67-75 110-100 16-8 24-25 40-33 26-10 60 0 85-25l50-50c26-17 50 0 77-25a190 190 0 01 118-67c42-10 84 8 118-10 25-15 34-24 67-24 26-2 26-2 42 7 16 8 0 16 25 16 8 0 17-16 25-8 8 0 17 17 25 17 42 18 100 0 152 0 93 0 185 85 236 160a166 166 0 01 34 67c8 17 8 42 25 59 10 8 25 8 34 16 8 17 0 9 0 25-10 25 0 42 0 67 8 109 17 217 17 326 0 117-10 242 0 367 6 50-12 100-2 160 0 25 8 50-10 66 0 9-16 9-24 17-8 25 8 8 17 25 0 0 8 0 8 8a463 463 0 01-8 150c-10 50 8 100 0 160a59760 59760 0 00-25 334c0 17 8 42 8 59 0 40-8 90-8 133 0 14 0 56-10 64 0 8-16 0-24 8-10 10-10 27-10 36 0 25-16 50 0 75 10 0 18 8 27 0-1 25 16 50 7 75-8 25-25 25-42 42-17 16-25 58-17 83 0 9 17 8 25 17a75 75 0 01 10 40c0 35-10 68 7 93 8 9 16 9 25 17 10 8 0 33 0 42 2 58-15 83-41 133-8 25-25 42-25 67s8 49 8 74c-10 67-10 126-34 192-17 50 17 75 25 125 18 50 26 100 26 150a587 587 0 01-25 176c-17 32-8 107 0 149 0 59 8 117 0 175 0 26-8 50-8 76v33c-8 17-15 17-15 25-26 42-10 67-17 100-7 42-40 67-24 109 16 25 24 33 32 66 0 34 0 50-8 76-8 25-8 50-8 75 0 26 17 50 17 76 0 50-10 100-10 150a2000 2000 0 00 0 317c10 50 19 100 19 159 0 50 8 92 25 142 8 25 0 50 8 75 0 26 17 43 26 59 7 17 24 26 40 42 19 17 19 42 27 67l26 75a295 295 0 00 50 58c25 34 50 76 84 100 17 17 42 26 60 42a507 507 0 00 185 108c24 10 50 0 50 68 0 33-18 58-34 66-17 9-43 26-60 34a1176 1176 0 01-84 60c-17 9-33 9-50 17-50 34-100 68-160 93-42 17-60 50-100 67-35 25-70 33-110 66-18 17-43 25-60 34-25 8-34 25-50 42-18 16-43 16-60 24a136 136 0 01-60 34c-60 25-110 67-160 92l-254 125c-194 100-362 225-548 317-42 25-92 42-134 67-26 17-43 33-68 50l-60 25c-83 60-176 100-270 144-32 17-83 33-110 67l10 8a174 174 0 01-67 17 252 252 0 00-68 33c-50 42-120 67-178 100-10 8-26 8-34 16a709 709 0 00-85 50c-24 17-40 34-66 50-17 9-68 9-76 34-93 33-170 100-260 150-86 42-178 75-254 133-17 9-34 42-50 50-18-1-18-10-26-10s-17 18-25 26c-17 18-42 9-68 26-17 9-34 25-50 34-94 50-178 100-271 150-93 50-185 92-270 150-40 25-83 59-134 84-33 25-75 58-118 66-84 25-150 84-236 117a892 892 0 01-126 59c-50 15-60 57-100 74-18 8-43 33-60 33-26 9-34-8-60 9-41 24-75 58-126 83-93 50-178 109-261 167-35 17-60 42-94 58-25 17-60 25-84 34-24 8-33 25-60 42-15 16-40 24-57 33-34 7-34 16-60 40-14 16-30 16-56 25-17 8-42 33-60 40-24 10-33-7-60 18-15 17-15 42-40 50-10-2-17-11-34-2-8 0-25 17-34 17l-25 25c-10 8-26 0-35 8-10 9-10 25-18 25-7 9-15 0-32 9-40 16-84 40-100 75-17 26-26 17-60 34l-58 34a302 302 0 01-60 26c-25 0-25-33-50-33s-67 25-84 42c0 7 8 16 0 32 0 9-26 17-34 25-34 25-60 76-100 84-26 0-35-17-60 8-15 18-15 26-32 43a298 298 0 01-110 67c-50 16-84 33-134 58-42 17-93 34-135 50a390 390 0 00-127 74c-42 25-84 34-110 67-24 25-40 34-67 59-16 7-25 24-33 32-34 25-68 42-110 67-42 24-76 57-118 82-34 17-67 25-100 42-34 8-76 17-93 50-42 33-84 58-118 92a310 310 0 01-118 58c-50 17-76 50-118 75-25 17-50 42-76 50-25 9-42 9-67 25l-76 50c-17 9-84 42-84 67 8 0 8 9 17 9-118 40-220 133-330 192-117 58-218 142-328 208-202 126-404 242-607 368-128 75-255 150-372 242-18 15-43 40-68 49-25 17-42 8-67 17-34 8-34 24-60 50-16 24-50 32-75 39a540 540 0 00-118 68c-44 25-94 42-128 75-25 17-34 34-60 42-25 8-34 17-50 33-36 25-78 50-120 76-17 8-34 24-60 33-33 8-16 8-40 33-10 17-44 25-50 34-20 10-36 26-50 34-10 8-20 25-28 25-8 8-25 8-34 17-17 17-17 33-42 40-7 0-16 10-24 10l-25 25c-17 20-34 28-50 36-20 9-110 50-128 42 17-33-10-75-26-108 26-25 26-25 17-50-17-34-17-34 0-67a156 156 0 00 17-67c-8-34-25-17-8-60 8-40 25-100 8-132-25-50-34-75-8-134 17-50-10-83-17-133-10-50 8-92 17-142 8-50-10-92 17-142 16-25 16-42 16-67v-33c0-8-16-16-16-24 0-34 15-17 32-34 17-16-8-33 0-50 10-25 17-25 10-50 0-8-10-8-18-16 0-10 8-17 8-34 0-42-60-42-33-83 17-45 34-62 26-112-60 17 0-42 0-58-42 0-25-110-17-134 17 0 25 8 42 0 7-25-35-25-43-50-17-33 0-33 17-50a213 213 0 00 42-117c0-33-18-33-26-58-20-34-3-25 14-50 0 0 8-25 8-34 0-18-10-10-17-26-8-25 8-33 0-58 0-25-42-25-50-67v-250c8-10 25-26 25-34 0-17-24 0-24-17-10-16 0-33 8-50a300 300 0 00 17-91c10-67 20-126 10-200v-100c9-24 23-32 23-57 17 0 43-17 34-34-25-8-42 9-50-16-10-17 10-60 10-76 10-50-8-100 0-150 8-40 0-100 17-142 17-40 50-75 34-133-50 0-17-42-10-60a202 202 0 00 0-100c0-74 10-141 19-216 10-67 10-142 17-210 0-32 8-65 8-100v-48c0-8 27-42 27-33-43-10-10-67 0-100 8-50 8-91 8-141v-151c0-26-25-117 17-117 0-150 34-310 42-460 8-141 8-275 17-417 0-42 17-75 17-117v-107c8-67 8-142 8-217 0-34 0-67 10-100-1-17 15-26 6-42 0-17-25-17-34-34-8-33 34-41 43-66 8-34-26-50-17-76 8-33 17-58 17-91 0-34 8-67 8-100 9-67 0-126 9-184 26-8 135-42 68-75-10 33-26 58-50 16-20-25 7-50 7-83 0-17-17-75 8-92 10 0 17 8 34 8 25-41-25-57-25-83a28 28 0 01 25-41c34-17 8 25 42 16a92 92 0 00 0-65c-10-18-34-18-10-43 10-10 28-10 28-17 8-17 0-17 0-33 0-25 17-42 17-67-10-25-17-50-26-67-8-33-8-33 0-67 10-25 0-41-17-58-16-17-33-25-16-58 25-42 84-50 60-110-10-16-35-32-44-57-8-34 17-34 26-50 8-26-17-34-17-60-10-24 0-50 0-74 0-50-25-125 25-142 26-8 60-17 34-75-8-26-16-34-8-68 8-25 16-58-26-58-8-26-25-60-8-76 17-10 42 0 50-17 17-18 26-26 17-51-8-25-34-25-50-42-26-25-17-75-17-108 0-17-10-42 0-67 8-17 17-17 25-34-33 0-24-33-24-50 0-23-10-31-18-56a240 240 0 01 17-75 115 115 0 00 0-76c0-27-10-52 0-70 17-16 42-33 25-57-8-17-50-17-42-50 10-34 43-10 60-26 8 0 17-8 17-16-17-17-50 0-76-17-34-8-17-25-10-50 20-50 0-83-40-110-24-14-24-14-41-50a220 220 0 00-42-50c-25-31-60-56-84-90-60-91-170-108-260-142-52-16-120-50-180-50s-125 18-184 0a777 777 0 00-337 35c-42 17-76 42-118 50a414 414 0 00-60 25c-16 8-58 0-75 8-10 9-10 25-10 34-24 0-66 40-74 16-10 0-26 9-26 17-33 8-60 42-92 58a323 323 0 00-93 67l-76 75c-25 25-76 67-84 100h-17c0 18-8 18 0 27-17 8-42 40-50 50-10 16 8 25 0 33 0 17-18 8-26 25-25 42-60 92-67 142-10 25-10 50-17 75a253 253 0 00-17 68c-8 50 0 100-8 150-10 50-26 100-34 150-1 34 7 75-1 109 0 25-10 42-17 67-10 50-10 108-17 158-8 67-25 126-17 192v109c0 40-8 67 0 100 0 50-8 100-17 142-1 8-18 17-18 33 0 9 10 17 10 25 6 25-2 34-12 59-14 50 10 108 0 167 0 25-6 50-6 75 0 25-25 50-25 67-3 8 14 16 14 25 0 10-10 27-10 35 0 25 0 50-7 75-10 59-10 117-10 175 0 50 0 100-7 160-7 50-16 100-16 150 0 24 10 50 0 74-8 25-8 42-17 67 0 59-17 125-8 184-1 33-1 50-11 75-7 25 0 50-7 75-8 33-17 50-17 84 0 25-8 50-8 75 0 50-10 90-10 140 0 43-7 93-7 135 0 40-16 74-25 116 0 25 17 92 0 108-16 25-50-25-67 34 0 8-17 50-17 58 0 25 17 9 42 17 17 42 0 108 0 150 0 9 10 25 0 34 0 10-17 10-25 19-17 25 0 50 8 67a410 410 0 01 0 175c-16 59-8 109-16 167a973 973 0 00-17 176c0 25 8 66 0 90 0 10-17 26-17 26v34c0 50-17 100-17 150 0 50-25 93-25 143 0 42-17 84-17 125 0 42 17 92 0 142h-17c10 0-8 117-8 125 0 50-10 92-17 134-10 83-26 150-26 234 0 24 10 49 0 74-8 25-25 33-25 50-17 58-17 117-25 175-10 50-27 100-27 159 0 108-25 208-50 309-8 25-8 50-8 75 0 25-10 40-17 66-17 42-17 100-34 150-42 186-93 360-220 510-24 34-50 59-75 93-42 58-100 108-143 167a183 183 0 01-76 58c0-8-10-8-17-8-8 17-25 33-42 50-10 7-10 16-16 24-10 8-25 8-34 17-25 8-42 33-60 40-17 10-34 26-50 35-17 8-43 8-60 25a255 255 0 01-67 33l-76 24c-25 9-42 25-67 34-68 33-170 33-245 50-50 8-100 8-150 8-27 0-43 8-70 0-24 0-50-17-66-25-25-12-60-21-84-36a463 463 0 01-68-50 365 365 0 01-110-116c-27-42-60-84-70-134a140 140 0 00-24-83c-17-17-25-25-42-50a1197 1197 0 01-67-300c-8-100-25-192 0-292 0-17 17-42 17-50 0-25-34-25-42-50 0-10 26-42 26-50 10-60-8-76-25-126-12-25-12-50-20-75 0-17-10-60 0-76 10-17 25-33 33-50 17-42 34-83 34-134 0-50-17-100-10-158 10-100-7-217 35-310a434 434 0 00 25-150c0-33-8-58-8-83s8-41 17-66c0-34-17-76 0-110 8-16 17-24 25-41 8-15 8-40 8-57 35-10 50-100 50-134 0-50-23-108-32-158-50 8-25-34-34-60 0-7-16-15-16-24-10-25 0-16 7-33 10-34-8-50-8-84-10-41-10-66 16-83 50-10 8-193 8-218 0-25 18-50 26-75 17-43 50-76 60-118 8-26 8-51 8-76s8-42 17-67c8-25 0-50 16-75 10-25 26-42 34-67 20-50 36-100 44-160 0-65 25-115 42-174 17-50 34-100 60-142 26-50 110-75 110-142 0-66 34-108 34-175 0-50 8-150 67-167 0-25 17-75 42-67 17-15 10-40 10-65 58 8 32-60 40-92 10-34 43-84 60-25 26-17 35-60 52-75h-10c-10-34 9-67 18-92-50-26 8-61 25-68 27-17 27-58 50-75 2 0 2 8 12 8 50-41 84-25 93-100h34c0-58 16-100 50-150 17-25 84-125 100-110 10 0 10-7 10-15h8v-17c17-25 42-17 68-25 25-17 25-50 50-50 8-34 50-10 60-42 24 0 50-67 58-92 10-16 10-42 17-50 8-17 25-42 25-50 26 0 50 8 60-25-26-8-10-33 0-50 16-8 0-25 8-42 0-8 25-25 33-33 15-17 58-42 66-67-18-8-1-83 7-108 10-17 26-26 26-50 8-26 0-42 0-60 0-24 50-90 60-140 8-34-10-60-34-68 0-15 25-15 25-24 0-25 0-100 34-100a207 207 0 00 8-142c-8-25-17-33-17-58s-8-42-16-67c-2 0-12 0-12 8-16-8 10-33 10-58s-20-34-36-60c-17-7-25-23-42-40s-26-35-34-51c-17-17-42-17-67-25a122 122 0 01-60-17l-60-25c-27-8-35 0-61-8-16 0-40-17-67-17s-50-10-76-10c-25 0-42 9-67 17-26 9-50 0-76 9a247 247 0 00-76 16c-25 9-17 25-50 25-50 9-85 25-135 25s-76 14-127 30c-17 9-42 17-60 26-24 8-33 16-58 25-17 8-50 8-67 17a422 422 0 00-60 24c-33 9-75 17-110 50 0 17-24 34-40 34-10 25-35 33-50 42l-52 50-25 17c-10 10-27 10-35 18-10 9-24 67-40 17-26-17-18 8-26 25-17 17-34 8-43 17-25 10-67 43-67 68a644 644 0 00-210 150c-68 60-144 100-195 168-25 33-60 50-84 83-17 17-25 34-42 50-10 17-16 42-24 59-10 8-17 8-26 8-8 8-17 17-17 25a175 175 0 00-33 50c-25 34-50 50-75 84a180 180 0 00-25 40c-10 10-17 10-26 27-17 17-25 59-42 75-25 42-76 84-93 134-8-8-67 83-75 92-17 17-17 33-34 50-26 0-10 17-17 33 0 9-17 17-25 25l-50 75c-20 26-44 42-60 76a160 160 0 00-27 83h-17c-17 8-8 42-17 50-10 25-36 42-44 59-10 16-25 33-34 50-10 8 0 25 0 33s-18 8-26 17c-10 8 0 17-10 25a2982 2982 0 01-23 25 165 165 0 01-34 50l-26 50c-8 19-25 44-25 50-10 27-10 44-17 60l-25 50a2310 2310 0 00-50 134c-10 17-10 42-18 59-8 25-16 33-25 58-8 25 0 50-8 67-10 17-34 25-34 50-10 17 8 50-17 42a1080 1080 0 01-25 83c-17 35-17 68-26 100-8 42-25 75-33 117a818 818 0 01-40 134c-27 40-18 83-35 133-17 42-25 92-34 134-25 83-25 167-42 250l-25 117c0 17-17 42-17 58 8 17 34 34 17 42 0 39-25 89-33 132-8 25-8 50-17 75-8 33 10 75 10 108 0 34-35 59-44 92a114 114 0 00 0 75v44c0 8-16 8-8 25 17 9 10 50 0 59 0 8-17 8-17 25-8 16 0 16 10 33 0 50 0 100-10 150-8 100 0 200-17 300-17 100-8 200-17 300 0 35 0 68-8 100-3 43-20 50-37 85a1278 1278 0 00-25 92c-9 25-18 50-26 83v100c0 34-17 59-10 92 37 17-13 142-5 184 8 32 25 49 42 74 17 25 17 58 17 92 0 135-10 260-10 394 10 109 0 209 0 317 0 34-6 59-6 92-8 67 17 134 8 200-16 119 10 236 0 370 0 50 0 92 10 133-12 0-12 10-19 10 25 27 17 68 17 110 0 42 18 75 18 125 0 42-10 76 8 117 27 84 35 159 51 242v67c11 17 20 42 27 58 10 42 17 84 34 126 8 25 67 83 42 117 25 25 25 50 34 83 8 34 33 34 50 68 17 25 0 58 26 83 16 25 42 34 60 59 32 50 83 100 125 142 42 40 93 58 118 108 10 17 18 25 18 42 0-10 8-18 17-18 60 59 143 100 202 134 40 25 83 33 134 58 25 9 34 17 42 42 17 17 8 50 42 42 0-17 10-17 0-25 42 0 50 8 76 16 25 17 42 17 67 25 34 0 68 0 93 9 25 8 42 25 76 33a190 190 0 01 76 17c25 8 50-10 84-10 25 4 42 10 68 20 33 0 50-7 84-7v17c8 0 17 0 25-10v-20c42-24 110 18 160-7v-8c0-10 93 0 100 0 35 0 52-17 86-25 60-20 127 0 195-20 60-16 118-32 177-41 8-25 42-8 67-16l25-11c11-7 11-24 11-24 25-20 25-1 51 6 0 0 8 16 16 25 10 8 25 0 34 8 18 0 43 20 61 20 16 0 41-16 58-10 17 0 93 44 100-6-24-10-92 16-75-35 10-33 60-24 93-33 25-8 67-42 93-33 25 0 67 40 75-10-16-7-16-24-16-32 15-8 41 0 60-8 15-10 15-25 31-42 35-7 103 9 136 0 40-7 73-24 107-33 42-16 92 0 92-58 17-8 43 0 43-8 17-10 8-25 17-34 25-25 50-8 84-25 17-8 8-16 17-33a64 64 0 01 34-17c27-16 27-42 50-58 27-17 78 0 103-17 17-17 0-50 34-75 25-17 60-25 84-42 25-16 42-33 68-50 24-17 59-17 83-33 0-25 34-50 50-67a66 66 0 01 68-17c0 9 34 0 34 0 76 9 50 117 50 159 2 67 10 117 20 175 0 17 0 25-10 50 0 9 0 17-10 25a98 98 0 00-4 84c8 16 17 8 25 33 0 9-8 25-8 42 0 25-10 67 8 92 8 25 25 40 34 58 8 25-17 17-42 34a91 91 0 00 2 66c16 26 0 26 25 35 0 18 8 35 0 50 0 19-10 27-10 44-7 33 27 8 0 40-7 10 0 18-15 18v33a142 142 0 01-10 67c20 25 3 42 3 59 0 16 36 33 0 40v35h10v16c-33 18-67 26-100 43-26 17-43 34-68 42s-40 25-66 42c-28 14-51 23-78 39-42 24-76 75-118 109-42 32-93 57-144 90-33 26-75 50-100 76-26 25-102 40-110 83-17 0-17 9-26 17h10c-128 42-237 150-338 225-50 34-85 67-127 92-25 17-42 34-67 50-26 17-50 25-76 42a116 116 0 00-25 33c-10 9-26 16-34 24-26 17-43 34-68 50-85 67-170 126-253 192-100 67-177 167-278 226-120 58-210 183-338 234 0 32-25 32-42 57-16 8-33 25-60 42-38 33-73 50-123 75-26 8-50 17-68 42-17 25-17 40-42 58s-42 8-67 33a311 311 0 01-60 50c-16 17-33 26-50 42-17 17-34 17-67 17 8 42-43 42-68 67-34 25-50 50-84 67l-100 50c-35 25-35 50-77 50 8 33-42 40-60 50-24 17-33 42-50 58-25 17-50 17-67 34-17 16-42 33-60 50-24 16-33 33-67 40a162 162 0 00-84 40l-126 100a1600 1600 0 01-177 133c-60 33-110 83-177 117v6c-17 17-34 8-50 25-10 8-26 34-43 42-17 8-25 17-42 33s-25 33-34 40c-25 26-76 34-100 50a707 707 0 01-102 67c0 33-25 25-50 42-18 16-18 40-43 50-26 16-43 8-68 25-10 0-10 17-17 26h-34c-36 17-70 50-100 76a268 268 0 01-54 42c-16 8-42 25-42 50-42 0-100 40-126 75-17 17-26 17-42 33-16 10-50 16-60 33-16 16-16 40-42 40 0-7-8-15-8-24-26 0-26 33-43 50-17 16-42 24-60 33-33 25-66 58-110 75a537 537 0 00-110 83c-23 20-50 20-74 36-17 16-34 25-60 40v26c-50 26-84 67-126 92a463 463 0 00-68 50c-34 26-34 34-50 67a131 131 0 01-68 50c-24 17-33 42-60 60-23 15-57 24-82 40-26 18-35 43-60 60-40 34-93 50-127 84a1280 1280 0 01-110 100c-33 32-84 50-126 82a634 634 0 00-118 92c-35 33-60 83-103 108-50 25-76 67-126 92-100 60-176 150-270 217-92 68-176 143-270 218a666 666 0 00-142 117c-25 25-25 42-60 60-33 15-40 15-67 40-67 67-143 125-220 192-66 60-142 110-200 167-51 40-94 99-161 109 34 65-135 65-118 139-25 0-17-33-42-16 0 67-125 125-167 160-34 24-67 40-84 82-35 58-77 42-128 58 10 17-33 50-42 67-25 25-33 42-50 67a565 565 0 01-127 117c-93 67-186 158-280 233-33 27-60 35-83 50-25 18-34 68-60 93-33-25-40 17-58 34-26 17-50 17-76 42a1448 1448 0 01-118 100c-84 75-170 158-260 217-120 75-195 192-305 267-26 17-61 25-77 42-25 23-25 48-50 64-25 17-42 25-68 50-17 17-42 34-60 50a885 885 0 00-142 117c-17 10-25 26-34 42-50 25-100 75-143 110-25 15-118 82-118 100-50 16-110 82-152 116-25 17-60 34-76 50s-32 40-50 59c-40 42-92 75-134 110-50 32-84 74-135 116a3274 3274 0 00-260 217c-43 40-77 68-110 100a885 885 0 00-100 85c-30 25-71 50-88 75-10 9 0 33-10 40-7 9-24 9-40 18a788 788 0 00-127 108c-25 36-25 44-67 69-17 17-42 33-60 50-24 17-40 50-66 75-15 14-40 22-65 38-17 25-26 42-43 59a64 64 0 01-33 17c-10 8-27 17-35 25-42 34-76 67-118 100-84 75-170 167-245 242-33 42-84 67-126 110l-126 124c-77 67-170 134-246 210-76 90-177 150-260 233a1642 1642 0 00-60 58c-26 25-26 50-50 75a702 702 0 01-128 92c-42 25-68 75-100 108a1381 1381 0 01-120 100 5076 5076 0 00-227 210c-75 66-142 150-220 225-100 83-175 183-270 267-50 42-84 92-126 133-34 40-85 75-110 125-60 100-143 184-227 268-60 67-110 142-170 217-33 50-75 92-100 133-35 42-51 92-85 134-26 42-68 92-68 142 34 16 0 50-17 66 26 26-25 134-33 168-17 83 42 108 42 192 0 33-10 66-10 90 0 35 17 60 26 85 16 33 25 83 42 125 8 25 17 50 25 67 24 40 33 100 59 142 14 23 30 30 40 56 16 34 24 67 40 100 18 24 60 40 86 60 40 23 50 80 100 100 84 30 160 90 244 130 25 10 50 10 68 18 25 8 33 25 60 34 25 8 50 0 75 16a255 255 0 00 68 34c42 8 110 25 152 25 8 0 16-10 33-10 10 0 18 10 35 18 25 0 50-17 76-8 24 8 40 16 75 16 26-8 43-16 68-16s50 16 76 16c25 0 50-16 76-16 50-10 110 8 152 0 33-10 33-17 50-42 10-8 17-17 26-17 8-8 8-17 25-25s50-8 60-8c33-10 24-10 40-34s35-16 50-33c18-8 27-33 44-42-8-50 34-40 68-58 25-8 34-42 60-50 24-17 50-17 67-42 16-17 16-33 33-50l76-100c10-17 25-34 34-50 17-25 34-17 60-25 16-10 16-25 33-42 10-17 26-25 43-42 42-33 67-67 110-100 60-40 120-100 170-150 10-8 19-16 27-16 9-8 9-17 16-25a392 392 0 01 76-100c33-33 40-60 75-84 33-16 50-66 92-75 74-25 74-66 117-100 16-17 25-17 42-33a255 255 0 01 42-60 177 177 0 01 35-50 102 102 0 01 42-41c17-16 33-16 42-40 17-20 17-45 34-53 16-10 42-10 60-25 15-17 24-34 40-50 19-17 50-25 69-50 17-17 0-42 17-60 10-16 35-24 50-40a367 367 0 01 60-50 475 475 0 00 84-110l50-74c26-34 17-76 50-92 17-10 34-25 50-34l16-16h17c0-10 10-17 10-17 7-8 0-8 15-17 10-8 34 0 43-8 19-17 19-42 35-60 17-15 34-15 50-32s24-33 40-50c43-25 70-60 100-92 28-25 70-42 87-67-10-25 68-75 85-90 17-18 34-27 42-43a175 175 0 01 34-50c25-25 67-42 92-67a1070 1070 0 00 85-100l66-67c17-17 25-25 34-42 17-16 25-16 42-25 34-25 34-67 68-100a26 26 0 00 16 10c17-16 17-33 43-50 16-16 33-16 42-33a486 486 0 01 92-92c34-33 34-67 76-100 17-8 34-17 42-33 10-17 17-42 34-60 25-32 50-66 76-91 34-25 76-50 118-75 93-58 110-142 160-225 42-66 110-150 186-174a120 120 0 00 50-34c25-33 60-50 84-92 26-27 26-50 60-77 16-17 50-25 67-40 34-35 25-68 67-100 17-18 60-27 76-50 10-10 0-27 10-35 7-20 7-10 15-27a176 176 0 01 50-34 157 157 0 00 52-60c16-16 25-41 42-66 14-25 50-33 65-50 40-34 67-84 110-118 50-50 110-58 167-142 26-30 60-37 93-64 34-16 60-40 93-58s50-50 84-67c0-33 25-33 42-40 25-10 34-18 42-50a262 262 0 01 75-95c17-17 34-17 50-25 16-10 24-34 40-42a713 713 0 00 94-84c16-16 50-33 60-50 7-26 0-34 15-50 26-34 50-67 76-90 26-36 68-50 85-86 16-32 7-32 40-40a136 136 0 00 60-34 838 838 0 00 85-92c18-17 43-25 50-50 20-17 20-42 27-59 24-34 66-59 100-84a223 223 0 01 50-40c17-19 43-10 70-28 15-16 15-33 23-50a214 214 0 01 52-33c25-17 42-17 60-42 16-17 24-33 33-50 25-34 76-43 100-68 18-17 26-33 43-50a181 181 0 00 42-33 710 710 0 00 68-50c25-17 33-50 58-59v10c26-27 60-35 85-68 50-59 126-92 177-142 34-33 60-59 93-84 42-24 75-57 110-90 17-17 25-34 40-42s44-17 60-33a1070 1070 0 01 112-100c42-26 76-60 110-92 67-59 143-126 220-176 25-17 25-50 60-58 42-25 92-50 135-84 50-39 84-89 134-123 68-50 135-117 203-160 42-24 67-74 110-90 8 0 24 0 33-10 8-7 8-15 17-24 17-16 50-25 67-40 42-27 68-68 110-93 34-25 76-50 110-75 42-34 84-67 117-100 26-26 60-34 85-60 25-25 50-40 75-75 17-17 34-25 50-42 10-8 10-17 18-25 8-8 17-8 25-17l42-40c42-35 75-77 117-100 26-17 43-26 60-42 8-10 8-17 16-25 10-11 26-1 34-1 17-10 25-34 42-50a228 228 0 01 67-60c40-24 74-57 110-82a336 336 0 01 110-84c32-16 23-16 40-40 17-27 25-18 50-35 14-8 23-33 40-50 16-17 33-25 42-42a130 130 0 01 32-25c8-10 33-10 42-10 23-15 6-40 23-57 8-8 25-8 34-8l25-25 42-42c40-33 75-66 117-100 76-58 152-117 220-183a137 137 0 01 60-34c25-8 33-25 50-42 34-24 60-40 92-74 34-26 60-60 102-84 33-34 76-34 100-75v8c18-17 34-33 50-42 18-8 44-8 60-25 0-16 0-25 17-25v10c17 0 34-43 60-60 34-33 76-58 118-92 10-8 10-25 26-33 8-7 25-7 33-7 26-8 26-16 42-41a176 176 0 01 50-32 426 426 0 00 102-67c25-34 68-50 93-84 17-17 25-40 42-50 7-8 24 0 33-8 18-10 18-17 26-17 17-18 34-18 50-43 10-8 0-16 17-25 10 0 26 10 34 0 0-25 34-25 50-40 17-18 25-27 50-35 26-17 17-25 34-42 8-15 34-24 50-32 17-8 34-25 60-33 17-16 17-33 33-50 16-7 50-15 67-32 25-17 42-33 67-40 25-18 42-35 68-50a760 760 0 00 84-77c25-16 60-33 76-50 8-6 25-81 42-50 34 10 76-50 100-65 36-25 86-58 112-90 33-43 84-60 126-93 17-17 34-42 50-50 17-17 34-17 60-26 17-8 33-33 42-50 16-25 16-33 50-40a230 230 0 00 100-76 263 263 0 01 93-76 480 480 0 01 110-66c25-17 42-42 67-60 25-24 60-40 84-57 43-34 85-42 120-75 31-34 73-50 110-75a176 176 0 01 50-35c23-16 31-16 57-25 33-17 60-42 92-58 26-17 60-34 85-50 17-10 42-17 60-25 8 0 17 0 25-10 8-7 8-16 17-24 26-25 68-25 101-40l10 7c-10 17-10 50 0 75 8 33 16 25 0 67-10 25-10 50-10 75 0 17-7 25-7 42v64c10 50 18 84 10 134 0 25-17 42-25 67 0 16 18 33 18 58 8 100-17 200-10 300 1 50-6 100 1 150 0 43 18 110 10 150 0 0-10 10-17 10-10 33 8 83 8 116 0 25-8 42-8 60 0 50 17 90 8 132-8 25-17 34-8 67 8 42-10 92 0 142 8 50 8 100 8 160 0 25 10 50 0 75 0 8-8 25-8 33 0 16 8 16 8 32 10 50 0 110 0 160v300c0 50-8 92 0 143 0 24-8 50-8 75 0 25 8 50 8 75 10 50 0 108 0 158s0 100 10 160c0 50 23 100 6 140 0 9-8 9-8 9a777 777 0 00 0 243c0 25 7 60 0 84-10 25-18 33-18 66 0 26 8 42 17 67 8 25-10 50 0 75 0 26 17 42 8 67 0 10-16 17-16 25 0 17 10 17 10 34 0 50-10 110-10 160 0 26 10 40 17 60v150c0 25-17 40-17 67s10 40 26 66c16 33 8 33-10 66-7 34-7 75-7 110 0 50-10 100-10 150v124c1 42-15 75 1 117 10 34-7 75-7 117h8s0 8 10 8c-18 10-27 17-18 34 25 8 17 50 17 75 1 15 10 30 1 40 0 16-17 25-10 40 1 10 28 10 28 26 0 0-10 34-10 42-7 50 10 116-7 166-26 8-43-17-60 8a115 115 0 00 0 76c10 16 26 33 34 58 10 17 10 42 17 67 0 25 10 50 0 75-8 25-25 33-25 58 6 42 23 92 23 142-8 42-17 67-17 110 0 40-8 74-8 116 0 50-25 83-25 133s0 100-10 150c0 27-6 52-6 77 0 15 10 40 18 65 16 77 25 162 25 236v117c0 42-17 58-25 100-10 25-10 50-10 75 0 50 0 100 10 150 7 50 7 100 7 150-8 60 8 100 8 150 0 26 10 50 0 84 0 25-16 34-25 60-8 32 10 32 17 57 8 25 0 60 0 75 0 50-17 92-25 142-10 22-17 64-10 100 0 22 10 40 10 64 0 50-17 92-17 150v318c0 41-10 91-10 142 2 25-6 41 2 66 0 17 17 34 17 50 10 43-8 85-17 118v75c0 34-16 34-25 60-8 15 0 57 0 74 0 25 10 50 10 75 0 50-10 100-10 150a353 353 0 00 0 132c10 42-8 83-8 125v134c0 25 0 58-10 75 0 17-16 42-16 58 26 25 10 117 10 150 0 50 0 100-10 150 0 26 10 50 10 76 0 25-18 42-18 67s8 41 8 66c0 10-8 17-8 34 0 8 8 25 8 33 0 66-16 133-25 200-9 50 10 100 10 150 0 27-10 44-10 70s10 50 10 74c-10 25-27 50-27 83 0 67 0 142-17 210 26 7 34 50 26 74a140 140 0 00-25 33c0 17 17 34 17 50 10 34 0 67 0 100 0 34 10 76-8 110-17 7 8 116 8 140v76c0 10 10 25 10 34 0 0 7 0 7 8s-10 8-10 17c0 7-10 24 0 32 0 17 17 17 17 25 8 25 0 58 8 83 1 26 10 50 10 76 0 25 0 58 10 75 0 8 14 0 22 16 10 10 0 25 0 34 10 25 25 41 25 67 11 41 27 91 18 125h17c10 25 10 50 10 75 7 25 7 42 15 58 17 50 34 92 50 142 10 24 18 50 26 74 0 10 10 25 10 34 6 8 15 16 15 25 16 41 25 83 60 125a380 380 0 00 58 75c17 25 42 33 60 50 16 17 25 42 50 60 42 32 76 74 127 90 33 17 67 50 110 67 40 25 84 42 126 60 92 31 193 64 286 90 50 10 110 24 160 33h251c93 0 177 8 270-25 25-8 50-25 76-25 25-10 50 0 67-10 17-8 34-33 50-40a593 593 0 00 68-26c117-67 227-150 330-226 15-16 32-25 50-42 16-16 32-25 41-50 25-40 60-78 84-119 10-17 25-34 25-50 10-26 10-42 17-67 17-34 34-67 42-92 10-17 16-34 25-42 0 0 8-17 16-17 11-8 1-16 11-25 16-8 40 0 58-8 8 1 0-16 8-24h27c17-8 17-25 33-33 16-9 41 0 50-25-34-26-84-26-118-43 0 0-17-9-17-17-8-8-25 0-34-8-8-17-8-50-8-67s17-33 25-50c10-9 10-50 17-50 18-10 120 15 85-44-24 8-15-17-32-25s-30-3-30-20c16-7 33 10 41-7 10-10 17-34 10-42-19-33-45-42 23-75 10 0 43-50 77-60 17-22 25-55 8-63-8 8-17 33-25 40-44 10-10-32-19-40-10-17-43 0-60 0-17-10-25-25-40-34 0 10-10 16-10 24-17 0-42-8-42-25s26-17 26-34c0-8-43-17-26-50 10-27 42-50 17-70 0 18-25 50-42 34 10-8 26-16 26-33 0 0-8 0-8-8-34 34-17-16-26-24-16-18-50 7-67-18 10-8 17-8 17-25-25-2-25-27-25-44-9-26-17-26 8-43h25c17-8 10-16 26-25 16-10 50 16 50-17-42 0-8-34-17-60 0-7-17-15-25-15-25-10-8 0-25 8s-50 25-69-8c-8-17 10-26 10-34 0-8-18-17-27-25 10 0 10-8 17-8 1-8-7-16-7-33 31-8 14 17 14 34 8 18 17 26 42 34 16 8 60 17 66 8 10-8 10-50 10-58 16 0 66 8 58-25-9-17-60-17-34-50a65 65 0 01-35-18c17-16 34 10 50 10 18 0 18-18 35-35-60-8-17-50 25-40 60 7 8 50 8 65 35 0 70-50 43-83-16-25-33-17-50-17-25-8-34-8-50-25-34 0-43-42-60-67-33-50-59 42-92-8 25-17 50-75 92-50 10 8 10 42 34 42 17 0 42-26 42-42-26-8-18-25-35-42-15-8-40 10-32-25-26-8-26-25-42-33-33-17-16 25-25 40-16-23-16-73-8-100 8-14 17-6 8-30-8-18-16-26-33-26-24 33 44 92-32 117-34 8-110-25-118-60-10-7-27-57-19-65 10-34 33-17 10-50-10-10-28-17-28-26v-40c1-10-7-26-7-35 10-18 18-10 35-18 8-8 25-16 8-33s-34 17-25-17c0 0 17 0 17-8 0-17-10-8-17-17-9-16-26-16-9-33 17-25 68 8 93 0a201 201 0 00 67-50h-8c-9 0-17 0-17 7-8-8-59-40-67-50-42-10-34 40-42 50-14 1-23-9-23-25-76-7-8-50 17-57s67-8 93-8c34 1 50 10 76-16-17-16-50-24-43-59 10-15 34-32 50-50 10-7 26-16 26-24 10-17-8-17-8-33 8-16 42-33 50-50-8-16-42-16-42-40 0-18 50-18 26-43-9 10-17 25-34 25-25 0 0-25 8-33-16-17-33 8-50 0v-42c-8 10-16 10-25 10-8-26 17-26 26-43 17-34-26-10-17-42 0-8 8-17-9-17-8 0-16 0-16-7-20-7-20-32-10-50 0-16-10-32-10-57 1-17-8-34-8-60h-17v-7c0-10-8-10-16-17 0-7 0-16 16-16 8 0 8 17 8 25 8 10 17-8 17-16 0-10-9-10-17-17-18-6-10-23 0-39l16-17c8-10 0-17 8-25 0-10 10-17 10-26 0-8-19-8-28-16-9-10 0-17-18-25-8 0-25 8-33 0-9-10 0-17 8-25l17-17c0-17 8-50-17-42-8 0-17 17-25 17-10 0-26 8-26 17-9 16 17 33-9 50-8 8-25 8-34 0-8-10-8-17-16-25-17-10-17-34-34-42-9 0-17 0-25-8-9-10 0-17 8-25v-26s-8 0-8-8v-10c-9-16-34-8-50-25-10-16 7-16 16-25 8-8 0-16 8-25 0-8 10-8 17-16v-42c0-17 34-25 34-42 12-25 12-50-6-67-25-16-50-16-50-66 8-67 110-76 110 0-50 8-10 66 8 16 0-7-8-15 0-24 0-8 8-8 17-16 8-26 0-26-9-42 0-10 0-34-8-50-8-25-8-25 8-42 10-8 34-25 26-42-9-8-50-8-68-8-24-57 86-41 51-83-23-25-125-16-66-75 17-16 34-16 43-40 0-10 8-35 0-43-17-17-17 8-34 8a157 157 0 01-60-20c-17-16-9-40-9-60 0-23-17-30 0-50l26-24c8-8 8-8 16-8 10 0 17 10 17 10 50-25-25-60-92-42-17 10-34 25-50 10-26-26 0-50 24-50 70-35-16-100 27-135 8-8 16-8 25-8 10 0 1-17 10-17h16c17-17 17-8 25-25a96 96 0 00 18-34c10-58-67-25-92-8-10 0-17 0-26-8 17-25 26-34 0-67-25 17-33 17-67 0 0-25 17-42 17-67-26-8-76-33-76-58s42-42 50-67c17-25 34-100 17-125-15-17-30-8-30-42v-33c0-10-18-17-27-25-25-67 60-34 93-50 17-11 42-27 50-43-8-25-33-17-50-25-8 0-25-10-34-10-8-15 0-15 0-24 0-25-8-40-8-58v-33c0-10 16-10 16-15 8-17-17-42-42-25-26 17 8 25 8 42 0 16-25 40-42 40-17 10-34-15-60-7-16-18 0-26-8-34-8-10-25-16-25-33-8-33 50-17 42-50 0-25-34-42-43-67-18-33 24-40 24-75 0-40 127 0 144-16 18-16 0-40-16-58-25-17-50 0-50-42 0-16 16-50 8-67-17-16-60 10-68-25-8-16 17-40 10-58 0-8-10-25-10-33-8-17-17-10-25-17-43-8 7-25 16-42 8-8 8-25 8-33 10-8 26-8 26-25 8-17 8-50 25-75 17-15 50 0 76 0 42 0 50-57 60-82-26-17-26 42-34 50-8 26-42 26-42-7-10-33 18-33 35-50 8-18 0-51 16-68 10-8 17-8 17-17-24-7-24 18-32 35-10 8-26 33-43 17-18-11 7-35 0-51-10-16-27-16-44-33-8-25 34-8 42-33 8-17-17-42-10-67 0-17 10-17 18-25 8-17-10-25-17-8-8 8 0 25-8 33a123 123 0 01-26 17c-8 8-25 8-33 0v-60c-10-8-10-8 0-25 0-10 8-10 16-17 10-25-14-25-30-33 0-17 0-25-9-42s-17-17-25-25c-27-25-10-42 6-60 17-7 17-15 26-32l25-25c18-17 35-33 35-58 8-17 8-60-17-60-17 0-25 9-25-16 0-16 8-16 25-16s25 8 42-10c8-7 8-24-8-24a119 119 0 00-76 0c-16 0-50 17-50-16 10-17 50 8 68 8 16 0 25 8 42 0 17 0 8-8 25-17 17-8 42-16 50-33 0-8 10-25 0-33-8-10-25-10-33-17-10-25 34-42 17-67 0-8-10-8-10-8v-15c-7-8-24-8-32-17-17-8-50-33-34-50 8-16 50-8 67-8 26-8 34-25 17-42s-42-17-60-33l-24-25c-10-10-10-17-10-25-7-17-24-25-32-42-17-25 8-25 33-33 10-10 17-17 26-17 17 0 50 8 67 17 10 0 17 16 25 16 10 0 10-25 10-33s7-25 7-33c0-10-8-17-8-26 0-16 0-33-10-41-7-10-15-25-24-25-24-10-49 50-75 33 0-17 42-17 34-42-8-16-42-25-50-8-9 8 1 25-9 25-16 0-7-17-7-25-10-8-26-8-17-25 0-8 17-17 17-25-17-25 33-25 42-33 8-10 17-26 8-34-8-16-25 0-34 0-35-8 10-50-10-67-10-8-18 0-18-16 0-17 10-17 17-25l25-25v-17c0-8 10-17 10-25 0-18-10-26 0-34 10-10 18-26 26-26 17-16 42-16 60-16 17 0 60 0 67-17 10-8 10-25 0-25-15-8-24 0-32 0-17 0-17-8-26-17 0-8-8-16-16-33-10-42 16-33 42-50 16-10 0-18-10-18-15 0-15-8-30-17a17 17 0 01-18-16c0-10 8-17 17-17 16-8 33-25 33-42-17-8-17 17-25 17-8 8-25 8-25-8 0-17 8-17 17-25 8-17 0-25 8-42s17-42 34-50c8-10 17-25 8-25-8 0-25 16-25 16-10 17-18 67-43 42-17-17 10-50 10-67 7-25 23-50 32-66 8-17 34-42 0-60-10 0-25 0-25-7-10-17 8-17 16-25 10-10 0-17-7-17s-17 8-25 0a18 18 0 01-17-17c-10-16 8-25 25-33s17-25 17-42v-25c0-8 8-16 8-16 10-10 10-17 10-26v-25c0-8 7-16 7-16 0-10 10-17 10-25 0-10 8-42 0-50-10-10-17-10-17-10l-17-17c-17-17-34-17-34-42v-50c0-11 16-11 16-11 10 0 17-7 17-15 0-17 0-42-17-42-8 0-17-8-17-8-10 0-10 8-18 16-8 0-16 9-16 0-10-8 0-16 0-25 6-16 31 9 31-16v-53c0-8 10-8 17-8 25-8 25-50 25-75v-75c0-17 10-42-8-50-8-10-25 0-34-10-10-6 0-14 8-14 8-10 17-1 25-10 8-8 8-16 8-25v-83c0-8-8-17-8-25v-84c0-8 8-16 8-25v-25c-8-8-8-16-8-25 0-16 8-40 0-50 0-8-8-17 0-25s17-8 25-8v-17s-7 0-7-8c0 0 0-10-10-18 0-17-7-25-24-25-8 0-25 8-17-8 10-10 10 0 17-10 10 0 17-7 17-15 8-10 8-10 8-17 10-8 10-8 0-17h-8v-8c0-8 0-17-8-25-10-17-10-34 0-60 0-15 0-40 8-65 0-10 8-10 17-17v-42c0-3 0 0-8-3s-8-8-8-17v-42c0-16 0-16 17-25 10-1 35-1 35-10 8-16-17-7-26-7 0-10 0-17-8-17-10 0-17 0-17-8 0-10 8-10 8-17 10-10 10-18 10-26 0-10 7-26 7-34 0-10-7-17-7-26v-50h-17c-8-16 0-40 8-50 10-16 26-33 0-40h-25c-8 7-17 7-17 15-8 10-8 10-17 10-8-1-16-11-16-20 7 0 15 0 15-7v-25c0-10 0-18 10-27 7-8 16-8 24-8 10-8 10-16 10-25 0-17-10-17-18-25 0-17 33-25 42-25 17 0 34 8 50-8 10 0 10-17 10-25 0-10-10-10-19-17h-25c-10-8 0-17 0-17 0-8 0-33 8-40 0-10 10-10 17-10 8-7 8-7 8-15 0-10 10-17 0-17-8-10-8 0-16 0-10 0-17-25-17-34-10 0-10-8-17-16-10 0-10 8-10 16-15 10-50-8-32-25 10-8 18 0 18-16 8-10 0-25 8-34 0-16 8-25 25-40 10-20 18-27 18-44v-20c0-10-17-10-17-10-17 0-25-14-25-31v-24c0-10 7-10 7-18 10-25 0-50 0-75 0-17-10-40 0-67 0-8 10-16 10-25 0-8-10-16-10-25-18-25-10-40 0-58 10-17 10-34 10-50 0-17-20-25-10-50 0-10 0-17 10-25 0-10 5-10 14-18 0-8 8-17 8-25s-16-8-16-17c-9-8-9-8-9-16 0-10-10-17-10-34-7-33 27-17 35-33 10-10 0-42-8-42-10-8-17 0-26-8v-50c10-10 17-10 17-17 10-8 10-34 18-42 10-17 10-25 17-33 8-8 17-34 8-42-8-8-25-8-25-25s0-40 10-48c5-16 13-16 13-33 0-25-42-25-60-34-15-17-7-60-7-84 0-17 0-25 17-33 17-10 17-10 25-24 1-18 11-26 11-43v-17c-2-8 6-8 6-17 8-17 17-50 8-67 0-10-16-17-25-25-10-10-10-17-18-25-17-17-25-34-25-67 0-17 8-17 0-34-8-8-17-16-25-33-10-25-10-58 17-67 8 0 33-8 33 0 10 10 0 25 10 42 16 17 40 0 50-25 0-17-26-17-18-42 10-16 26-16 26-33v-25c-10 0-10 8-10 0l-6-10c-16-7-40-7-49-15 8-18 25-43 16-68l-22-25v-33c8-10 25-10 25-17 11-17 1-25 11-42 6-8 14-17 14-25s-16-17-25-25c0-17 16-17 16-33 8-10 8-34 17-50 0-17 0-17 8-34 17-17 26-26 26-43v-65c0-25 8-60 0-76-10-16-17 0-34-8-10-8 0-16-10-33 0-16-7-16-15-16-17 0-17 0-34-8-10-10-17-10-17-25 0-17 8-10 25-17 18-17 18-50 18-67 0-16 10-16 17-25 8-8 8-25 8-33 0-24 0-58 10-83 7-16 24-33 24-58 0-8 0-25-18-25s-8 17-17 17c-9 8-68-17-60-34 0-8 10-8 10-8v-50l24-25c17-10 17-10 25-26l26-25c8-10 8-26 17-35 10-17 17-17 26-25 10-8 10-25 10-33 0-17 0-25-18-25-16 0-16 7-33 16-34 8-26-26-26-50 0-9 0-17 10-34 7-19 7-19 16-27 8-8 0-25 0-33-10-16-10-8 0-25 8-8 8-24 8-33 0-17-16-17-16-33a53 53 0 01 0-50c0-17 17-42 17-59 0-17 10-40-7-50-10-8-17 0-26-17-8-8-8-25 10-25 7-8 16 0 24 0 18 0 26 0 26-8 10-8 0-25 10-33 0-17 7-25-10-34-24-16-59 10-59-33 0-25 27-34 35-58v-50c0-16 10-25 18-40 8-10 17-26 8-43-7-9-15 0-24-18 0-8 10-8 0-17l-8-8c-10-8-10-17-10-33 10-34 27-25 50-42 27-8 53-42 60-67-7 1-7-7-7-7a173 173 0 01 33-50c16 8 16 25 41 17 10-17 10-26 26-34 17-10 50 0 60-18 7-8 0-33 16-50 25-25 67 0 92-16 10 0 18-17 26-25 10-10 17-18 26-18 17-17 25-34 34-50 17-17 34-34 26-59 0 0-8 0-8-8s10 0 10-8c6-10 15-10 23-18l25-25c10-17 18-17 35-17 8-9 17-17 34-17h25c-24-17 10-34 35-34 17 0 25 0 34-8 8-8 0-25 8-34l10-8c0-8 0-8 10-17 5-8 5-8 22-16 10 0 10-10 17-10h17s8-8 8-16c10-9 10-9 20-9 7-8 24-25 40-25v10c10 0 27-18 35-26 8-9 25-17 42-34 16-17 40-40 66-40 0 15 26 7 26-10 8-8 0-8 8-25 11-17 43-33 61-42h16c10 0 17-16 25-25 10-10 18-18 27-18 8-10 16-10 25-18a110 110 0 01 34-25c8-9 17-17 25-17 10 0 26 0 35-8 25-8 92-109 118-84 25-33 60-50 92-75-8-17 34-17 50-25a263 263 0 00 50-33c44-25 70-50 110-67 26-8 26-17 43-42a196 196 0 01 50-33c35-17 77-50 110-75 43-42 76-50 127-75 25-17 34-17 60-25 24 0 58 0 66-25 0-9-8-17-8-25 0-17 8-17 17-26 17-9 42-17 60-26 23-16 30-16 65-8 26 0 68 7 68-26 0-8-17-17-26-25 0-26 26-34 43-34 26-9 26-17 50-34 18-17 35-25 50-33 10-8 16-8 25-16 8-9 17-26 25-26 17-9 42-9 68-18 25-16 25-33 42-50 32-25 100-25 124-50 10-8 10-8 10-16 40-34 83-50 125-76 10-8 25-8 34-16 17-9 8-25 25-34 25-16 60-8 60-50 24-8 83-67 100-58 32-42 58-50 98-67 36-17 78-50 110-67 20-8 36-25 60-33 18-8 26-25 43-34 34-24 76-50 110-75l126-75c34-26 76-26 110-50a102 102 0 00 42-43 196 196 0 01 50-33c17-8 17 0 26-17 8-8 8-16 25-25 17-8 34 0 42-8 10 0 25-18 34-26a268 268 0 01 50-43l128-75c84-50 168-93 253-143 33-25 60-58 93-67 40-16 83-50 125-75 84-40 170-108 253-158 42-25 93-50 135-75a860 860 0 01 126-60c42-25 84-58 135-83a330 330 0 00 118-68 304 304 0 01 100-67c43-17 85-25 120-58 7-9 24-34 40-42 27-8 35-8 60-24 26-17 34-34 60-49 16-18 50-18 75-26 17-9 34-25 50-34 18-16 43-16 60-33 33-17 76-50 110-75 25-9 40-34 58-42 26-16 50-16 76-32 17-9 34-25 60-34 7 0 23 0 32-9 8 0 8-17 17-25 17-8 50-8 67-17 17-8 42-17 50-33 34-33 43-49 93-66 34-17 102-42 135-67 17-16 26-33 50-40l68-27c50-16 85-50 135-75 76-40 160-90 236-125 26-8 34-25 50-33a518 518 0 01 120-59c17-8 34-25 50-33l118-67a623 623 0 01 127-75c16-8 32 0 50-17 16-8 25-25 50-33s100-25 94-58c17-9 33-9 42-17 17-9 17-17 34-25 16-8 67-42 75-42 17-8 34 0 50-8 10-9 43-34 50-42 10-7 27-16 35-32 17-9 26-25 42-17 17-8 34-34 50-42a345 345 0 00 70-32l117-67c17-17 34-42 50-50 18-17 110-42 127-58 16-17 16-26 49-34 53-18 103-43 154-68 24-8 40-33 66-33 9-25 17-34 50-42l110-24c17-24 76-49 100-66 18-8 27-25 50-33 27-7 36-7 53-24 33-26 75-43 110-60 16-8 40-16 58-24 17-17 17-34 34-50 17 10 67 1 84-9 16-6 8-15 25-23 6-8 23-8 30-17 50-25 77-50 128-67 49-16 74-40 117-58 33-8 25-17 50-33 9-9 26-9 42-17l25-26c42-34 110-43 150-76 27-18 110-60 136-76a782 782 0 00 118-59c40-25 83-33 126-58a456 456 0 01 168-84c17-33 60-50 93-58 17-8 34 0 50-17l17-25a113 113 0 01 68-26c0-26 26-18 43-26 26-8 119-58 153-67 17-8 25-16 42-25 25-8 34-8 42-33 25 0 42 0 59-8 0 0 0-17 8-17 9 0 17-9 26-9 34-17 67-50 100-59 18-8 43 0 50-17 18-8 35-25 50-33 36-24 78-32 103-57v8c17 10 34-24 50-33 28-17 37-9 60-25a766 766 0 00 110-67c18-17 40-25 60-42 34-17 76-25 110-42 25-15 34-40 67-49a560 560 0 01 68-26c42-18 84-34 126-59 50-24 100-66 169-83 50-8 84-40 135-58 25-9 50-25 75-34 17-8 26-8 34-16h17s0-19 9-19c33-25 84-25 118-50 25-16 25-24 50-33 26-8 26-16 50-33 44-25 103-33 145-42 42-16 84-40 126-58 45-17 78-42 120-50 44-17 86-25 120-42 33-25 75-33 117-58 17-9 26-34 50-34 18 0 52 17 69 0-26-25 33-33 42-33 32-8 32-17 58-25a299 299 0 01 118-50c40-17 90-25 134-50a184 184 0 01 68-42c25-7 50-7 67-24 34-17 60-33 93-42 33-17 67-17 92-25 33-18 59-34 100-43 35-16 68-8 102-25 0 0 76-40 110-50 33-8 67-25 100-33 109-25 210-75 312-117 49-17 99-33 142-50 42-17 270-84 329-108 100-42 202-67 312-100 50-16 110-40 152-49 50-18 118-26 169-43 102-33 203-58 304-90 50-18 102-18 152-43a1220 1220 0 00 220-93c84-150 176-167 260-200zm-34880 5760c17-16 17-40 17-66 0-17 0-25 8-33 9-9 9-17 17-34 9-33 0-67 0-100 9-33 34-58 26-92 0-25 0-50-10-75 0-8-7-25-7-33 0-17 8-17 8-34 0-8-8-16-17-33v-33c-8-17-17-25-25-34-8-17-8-33-8-50-10-108 50-217 67-325 9-25 0-59 9-84 0-8 8-25 16-33 9-9 26 0 43 0 50 0 50-25 60-59a134 134 0 00 30-75c0-25 20-50 0-67-10-8-22-8-30-16h-17v-34c9-33 25-33 50-50 17-8 33-50 33-67 0-16-17-25-26-33-8-8-8-25-17-33-8-34-8-42 17-67a135 135 0 00 34-60c0-7 8-15 8-24v-33c-8-25-33-17-33-50s7-50 16-75c8-25 8-50 16-75 10-25 10-42 10-75 0-34 16-60 24-92 8-17 17-25 17-42s0-25 8-42c17-16 26-16 17-41-8-34 9-67 9-110 0-16 0-24 8-41 0-8 9-8 9-16l-10-10c0-15 10-15 18-24 8-8 8-33 8-50 0-25 9-50 17-75 9-25 25-42 25-67s0-50 9-75c8-25 8-42 8-75 0-25 9-50 9-75l25-60c8-24 17-40 17-65v-84c0-17 0-25 8-33 9-10 17-10 17-25 9-17-8-42 0-60 0-7 9-15 9-24V20000c0-24 17-50 17-66 17-50 26-109 43-167 8-25 16-50 33-75 10-17 0-67 35-59 8-25-34-16-25-33 0-17 17-25 34-34 0-8-17-8-17-16-1-9 7-17 16-17 0-33-10-75 8-117 8-17 17-17 17-33 0-17-10-25-10-42 10-10 18-10 27-20v-40c0-22 0-55 18-80 9-8 17-17 17-34s9-34 9-42c-1-10-1-34 7-42 9-8 9 0 17-8v-26a270 270 0 00 9-84v-42c16-8 25 9 33-16 0-17-8-42-8-60-3-6 5-14 14-23 8-8 0-25 0-42 0-16 17-16 17-33 8-8 8-25 8-33 0-10 17-25 17-34-10-10 0-17 8-26 9-8 0-25 0-33 0-25 17-50 17-75 10-25 10-42 29-67 9-17 0-50 17-67 9-8 17-8 17-25v-42c0-16 9-25 18-33v-42c0-15 8-15 17-32 8-16 8-24 8-40 0-18 9-34 17-43 8-8 17-16 17-25 0 0-8-8-8-16a90 90 0 01 16-50l26-25c8-10 8-17 17-25 8 0 16 0 16-10v-64c9-25 17-41 43-50-10-16 9-33 17-50 0-8 9-16 9-25-1-8-1-17 7-25 17-33 0-92 17-125 8-17 34-33 42-50a296 296 0 00 17-84c0-25 0-58 17-83 34-34 67-50 93-83 8-9 8-17 8-34s9-17 9-25v-67c0-25 0-49 8-75 8-26 42-43 42-68 0-16 0-33 9-40 0-10 0-18 8-18 0-8 8-8 8-17 20-26 20-59 20-84 0-35 9-50 26-76 8-25 8-59 16-84a180 180 0 01 43-67c8-25 25-40 59-50 8 0 25-8 42-8l25-25a96 96 0 00 42-59l17-33c0-17 0-33 8-42 10-16 18-16 18-33 9-17 9-25 17-33l25-50c9-17 17-26 26-42 0-10 0-25 8-34 9-25 17-33 9-66 0-26-17-60-10-84 10-25 35-42 35-67s-10-16-25-33a63 63 0 01-17-42c0-33 8-50 17-83 8-25 0-60 8-92 8-17 17-8 17-34v-41c8-34 17-50 17-84 0-33 0-58 9-83v-42c0-17 9-25 17-33 0-10 0-34-8-42 0-17-17-17-10-25l26-25c9-8 9-25 17-34a109 109 0 00 9-75c0-27-17-51 0-85 8-17 33-17 42-34 8-23-10-32-17-57-8-25 0-50 0-75 8-68 50-110 76-160 34-58 50-108 76-167 34-66 67-108 84-183 10-17 10-17 10-42 0-8-10-25-10-33 0-45 26-71 43-113a997 997 0 00 42-158 291 291 0 00 18-87c9-25 0-58 9-92 7-32 32-50 32-82 0-17 0-34 9-50 8-17 25-17 42-25 34-17 42-34 50-67 9-42 17-110 50-142 16-17 33-8 50-25s15-34 15-50c0-17 8-34 16-50-25-30-50-40-67-80a239 239 0 01-8-108c8-15 16-15 25-32a64 64 0 00 17-33 737 737 0 00 50-84c18-33 10-66 18-100 0-16 0-33 8-50 0-8 18-25 27-42 8-16 25-25 42-41l26-60c0-15 9-32 9-50a115 115 0 00-27-32c-8-25 0-67 17-84 17-25 42-50 50-75 10-16 43-83 0-83 0-17 10-50 18-67 8-17 17-25 17-42 8-25 8-16 33-25 25-8 0-16-17-25-22-8-22-25-22-33 0-35 10-68 18-111a571 571 0 01 42-105c0-10 8-10 8-17 8-8 8-17 8-25 0-17 9-25 17-42 9-25 9-58 17-91a400 400 0 01 34-92c17-25 17-50 50-75 26-26 34-42 34-76 0-16 0-33 8-41a125 125 0 00 26-34c0-16-10-25-17-41 0-17 8-26 17-42 8-17 25-17 34-25 8-10 8-34 8-50s-17-15-25-32c0-16 17-25 25-41 8-17 8-26 17-42 10-8 27-8 36-17 8-16 0-33 0-42 0-16 0-16 16-33 9-10 26-18 26-26 8-17 0-33 8-50 10-34 0-60 10-92 0-17 0-42 8-58 0-17 19-17 27-42 8-17 0-34 0-50 0-17 16-25 24-34 17-15 10-40 10-65 8-20 17-36 25-62 9-7 9-24 17-41 8-24 17-58 34-83 8-8 8-25 17-33 8-10 25 0 33-10 9-7 9-15 9-24 0-1 8-10 8-18v-8s9-18 9-26v-25c0-8 8-8 8-17v-17c0-10 0-10-7-17-10-8 0-33 8-42 9-1 9-1 9-10 2-7-7-7 10-7s25-1 34-18c0-8 8-25 8-42v-84s0-25 9-34l25-25c17-16 17-42 17-66 0-13 0-30 8-40 0-10 36-50 36-65 0-8 8-8 17-17 9-8 0-8 0-16v-42c0-17 0-25 9-42s17-50 34-58c7-10 16-17 16-25 0-17 33-50 33-60 10-7 0-24 0-41 10-32 10-50 28-82 8-16 42-57 33-74 17-75 93-100 110-167a226 226 0 01 50-100c10-10 28-34 28-50 0-17-23-17-15-42 25-8 50-58 67-84 23-33 14-66 30-108 10-17 27-25 44-42 9-8 17-16 17-25 9-8 17-8 17-17 9-8 9-25 9-33s17-8 17-17c9-16 9-50 9-75 0-20 17-44 8-62-7-24-24-24-24-60a211 211 0 01 5-73c9-16 34-33 0-41 0-25 34-76 42-100l50-100 49-126a597 597 0 00 27-51c9-25 9-50 18-67 17-42 50-75 59-117 0-8 0-25 8-33 10-8 18-8 26-17 17-25 0-50 9-67 42 9 8-41 42-58 0-17-8-25 0-33 0-17 8-10 17-25 17-42 34-67 59-110 10-16 19-7 19-24 0-8-10-17-10-33 10-24 18 0 27-16 8-8 8-25 8-33 0-25 0-66 34-75v-40c34 0 67-141 76-166 50-107 100-216 143-324 25-67 50-134 93-184-10 0-10-7-17-7-1-26 16-42 24-60 17-24 17-24 25-57a430 430 0 01 50-110c10-6 10-15 18-23 8-8 8 0 17-17 8-16 0-41 16-58 17-43 26-76 43-111 25-40 42-90 67-132a63 63 0 00 17-33V6200c8-25 25-41 34-66 8-10 8-25 8-42 9-8 18-8 26-17a90 90 0 00 26-58c9-17 9-42 26-67 17-33 34-58 50-92 10-16 10-25 17-40 9-35 34-60 50-93 18-34 35-75 60-100a177 177 0 01 50-34c17-17 17-25 50-33 9-25-7-167 50-134 0-16 0-50 19-67 8-16 42-25 50-33-50-33 17-75 42-92l-8-8c8-8 25-17 34-25 9-17 0-34 9-50 9-34 35-50 60-75 25-34 25-67 60-84 25-8 17-17 25-42a372 372 0 01 50-100c50-58 102-117 144-175 9-8 17-25 25-33 9-10 26 0 34-10a140 140 0 00 25-50 135 135 0 01 36-57 311 311 0 00 49-60l43-40a219 219 0 00 43-76c17-16 17-33 42-50 17-8 42-16 50-33 10-17 0-33 26-25 0-17-8-17 9-34l25-25a117 117 0 01 25-33c8-17 8-25 25-33 9-10 26-10 34-17 8-17-8-17 8-33 9-10 26-10 34-17 10-8 10-25 18-33 9-10 25-10 34-17V3980s8-8 17-8a153 153 0 00 59-84c25-8 59 0 84 0 34 0 8-41 25-58 9-8 17-8 26-17a117 117 0 00 25-33c9-10 9-17 0-34-10-16-10-16 0-25 9-8 18-16 35-16 16 0 25 16 25 25 0 16-10 25-17 33-10 8-17 8-10 17 0 8 10 8 18 8 0 25 43-8 50-17 10-8 10-25 18-33l25-25c26-25 10-42-7-58-10-10-10-34 0-42 8-17 33 0 42-25 0-10-10-34 0-42 17-8 25 8 25 17 0 16-25 16-8 33 17 8 33 0 42-8 6-10 6 0 15-10v-50c8-7 8 10 17 10 16-10 8-25 8-34 8-16 17-8 34-8h18s9-8 17-8c9 0 26 8 26 16 8 0 0 10 8 17 9 8 17 0 17 0s0-8 9-17l17-8c17-8 9-8 17-25 8-8 17-17 17-33 0-17-10-34 0-50 0-10 17-26 17-26 17 0 25 25 34-8 0-17-10-42 17-33 0-10 0-25 9-34 8-33 17-50 8-83 0-25-17-50 0-75 9-17 26-42 50-50h18l8-10 34 1c0-24-24-40-15-59a60 60 0 01 16-30c10-10 28-18 37-26 8-10 0-25 8-34 0-8 0-16 8-16 9-10 9 0 17-10 9-7 9-24 17-32l26-25V2820c0-8 10-8 10-17 9-8 18-25 26-33a150 150 0 00 42-58c9-26 34-50 42-76-1-17-1-17 15-25 17-17 17-34 34-50 8 0 8 0 17-10 8-8 0-17 8-33 10-25 27-42 35-67 9-24 0-49 18-74 8-10 17-17 17-25a60 60 0 01 17-34c8-17 0-34 0-40 0-19 8-19 8-36 9-25 9-50 18-75 0-25 8-58 17-83 0-10 10-25 10-34 0-17 0-26 9-34-2-8-11-8-11-8-17-10-25-10-17-26 9-8 17-16 17-25 9-25-8-58 0-83v-150c0-25 0-42-8-67a114 114 0 01-20-60c0-15 9-24 9-40 0-17-8-25-8-42-10-25-10-58-10-83s-15-50-24-76c0-8-8-25-8-33-10-18-17-26-17-43 0-16 8-33 0-50-10-23-17-39-25-65 0-16-10-25-17-33-10-17-10-25-10-42 0-25-24-33-33-66 0-17 0-26-7-42-13-10-30-10-30-32-10-16 0-25-10-33-24-33-32-67-50-100-25 0-25-18-32-27a5944 5944 0 01-25-25c-34-40-76-83-102-125-16-16-42-33-60-50-7-8-7-17-15-17-10-8-10-8-17-8-17-8-10-25-25-33-10-10-17-10-26-16-8 0-8-8-17-17-20-7-29-7-29-15-10 0-10-10-10-10-20-7-36-7-36-24-8-2 0-10-8-30-10-10-34 0-50-10-17-5-17-13-26-22-17-8-34-25-50-33-8-8-25-8-33-17L17852 310c-16-16-50-16-75-25-34-16-60-33-93-50-25-8-50-25-76-33-25-10-59-10-84-17-17 0-26-8-42-8h-17c-9 0-17-9-26-17-25-17-42-33-67-42-34-8-67 0-93-8-33-10-59-18-92-26-34 0-68-8-102-8-33 0-67-10-92-10-17 0-26 10-42 10a98 98 0 00-32-17c-16 0-33 17-50 17s-25-17-42-17c-33 0-84 17-117 25-42 8-76 8-127 17-50 8-60 33-92 50-44 16-77 8-110 25-35 16-68 25-94 40-168 77-295 193-438 294-50 33-67 66-110 100-10 8-10 25-26 25-8 8-34 0-42 8a64 64 0 00-17 67c-26 8-60 33-68 67-10 0-17 8-26 8-10 25-26 17-43 42-17 17-17 50-34 67-33 40-60 66-92 108-34 42-68 67-93 109-42 66-110 133-135 208-17 42-42 84-50 134-67 17-100 150-134 200-34 67-76 142-110 217-67 134-118 276-177 426-34 83-60 159-93 242-42 75-84 142-100 234-18 100-60 192-93 284-35 83-70 175-103 258-67 159-143 310-194 476a1297 1297 0 01-100 250c-32 84-58 176-90 250-70 160-110 327-178 485-17 59-60 100-76 159-17 66-34 133-60 200-50 125-90 250-141 376-60 133-110 275-150 417-60 175-136 350-195 526-23 75-74 142-91 217-25 83-42 167-84 242-42 83-76 192-110 275-42 117-67 243-110 350-51 126-111 250-151 385a6100 6100 0 01-180 493c-160 392-287 800-420 1202a414 414 0 01-46 108c-16 42-16 67-33 100-10 34-50 67-69 100a381 381 0 00-60 117 1380 1380 0 00-58 267c-8 126-67 217-110 334-16 59-25 117-50 175-50 110-134 218-160 343-15 83-65 150-91 225-24 84-33 167-58 250-18 60-77 143-43 200-50 43-60 168-76 218-24 83-16 175-58 250-36 75-112 150-112 242s-16 167 0 260c10 66-50 74-75 124a371 371 0 00-42 160c0 66 8 90-26 150a1327 1327 0 00-59 166c-67 217-118 434-185 651-34 109-50 226-84 334-36 109-87 217-120 317a5900 5900 0 00-152 668c-18 75-43 150-50 234 0 33 7 83 7 108-9 50-60 84-68 134-8 58-8 117-33 175-43 100-85 200-110 310-50 233-135 442-185 675-34 175-110 343-144 526-17 84-8 159-33 234-26 92-60 184-85 275l-50 184c-8 25-8 67-16 92-9 25-34 41-42 67-17 58 0 100-26 150-25 50-25 92-25 150-17 108-50 217-76 326a9998 9998 0 01-135 492c-25 84-33 184-50 267a10420 10420 0 00-93 501 2327 2327 0 01-67 259l-50 250c-18 67-68 184-35 234a440 440 0 00-60 230c-7 80-7 140-32 220-34 124-68 241-93 366-17 110-34 200-68 310-25 82-25 150-33 232-18 125-43 250-60 375-26 260-85 501-135 752-17 108-50 217-50 325-10 167-77 334-93 501-10 60-26 116-43 183-16 125-25 250-42 384-33 233-67 492-135 710-26 83-34 175-43 258-33 317-92 634-135 952-25 150-42 307-60 460-7 73-7 156-24 231-17 60-8 100-8 160 0 16-26 41-26 57-8 27 0 51 0 77-8 100-33 192-42 292-17 0-25 8-33 8-8 25-8 58-8 92-34 17-25 75-50 83-60 25-43-50-43-75-50-50-33-58-110-25-8-33-24-50-33-83-14-50-5-34 3-75a400 400 0 00 10-200c-10-34-35-34-27-76 0-25 26-42 26-75 0-100-68-84-135-109 0-24 24-33 32-58 10-33-16-58-16-92v-175c0-42 8-117 0-159-17-58-43-90-50-150-10-59-35-109-35-160 0-16 26-50 26-66 8-34-17-75-10-100 18-74 60-66 35-140-50-160 8-118-10-177-7-33-24-117-40-142-18-16-43-25-60-33-34-17-26-33-26-67 0-16-17-25-8-40 16 0 50 0 42-27 0-7-17-15-26-15-25 0 0 8-16 25-34 42-60-17-43-50 10-17 26-25 17-50 0-17-25-25-8-50 17-16 84-40 76-58-7 0-15-8-24-8-16 0-8 8-25 8a158 158 0 01-58 17c0 42-42 17-50-8 0-17 8-34 8-42 0-15-8-23-8-39v-93c0-25-10-50 8-75 8-25 34-33 34-58 0-34-10-42-26-50-33-25-16-17 0-42 17-17 10-42 17-67 10-17 17-42 26-58 8-17 0-50 8-67 8-10 17-10 25-17l17-34 23-50a161 161 0 00-8-110 338 338 0 01-42-74c-10-25 0-58-17-92-8-16-34-33-42-50-10-25 0-50-10-67-7-8-58-33-15-40 0-26-17-35-26-50-8-27 0-43-17-68-8-17-25-25-33-50-10-25 0-50-10-67-7-50-24-92-24-142v-160c0-40 8-90-8-132-10-20-17-27-26-52-17-25-8-34-17-60 0-15-16-32-25-50-7-24-24-50-33-74-10-33 0-92-34-125 25-17 16-33 8-50-8-25-17-42-17-67 0-17 0-50-8-67-10-16-34-25-10-40 18-11 43-1 70-20a90 90 0 00 16-50c0-33-50-74-76-100a218 218 0 01-61-125c-10-33 10-58 16-91 0-34-17-60-17-92v-92c0-33-17-42-26-75-8-28-8-62-16-87-10-16-34-33-50-50a249 249 0 01-52-150c0-17-10-33 10-42-20-16-50-8-50-33 0-41 30-16-10-41-18-8-18 0-35-16-8-10 0-34 0-50-8-34-8-42 17-67 17-24 34-33 17-66-18-26-35-35-69-35-43-8-43 0-50-41-10-25-10-60-10-84 0-25 10-58 0-83-8-27-16-44-25-70-8-41 17-66 25-107 0-18 10-43-8-61-17-16-25-7-50-16-9-100-34-192-50-292-10-40 6-24 15-50 17-31-9-40-26-56-33-43-33-93-33-143a415 415 0 00-14-100c-9-33-25-66-25-100 1-24 1-24 17-32 10-8 43-17 26-42-10-8-33-8-40-16-17-12-17-20-26-36 0-25 10-25 17-41 8-26-10-17-18-34-17-18-17-68-8-84 8-17 17-25 8-42 0-8-8-17-17-25-7-10-15-10-15-17-9-8-9-33-9-50s-8-32-8-50c0-7 0-16-9-24l-6-17c0-8 24-50 0-33-18-25 0-25 16-34 0-16-17-16-26-33-8-7-8-32-16-41-9-50 8-50 42-58 17 0 33-8 25-25s-18-17-26-34c-9-16 0-33 0-50 0-16-9-33-17-50 0-16 8-33 0-50-9-24-42-24-34-50s33-15 41-32c10-16-27-16-19-33 0-8 26-16 26-33s-17-25-26-25c-25-11-59-2-75-35-17-26-26-67 0-92 25-25 33-34 33-75 0-25 0-17-17-25-16-10-25-17-25-42s-17-83 0-100c10-10 34-10 42-10 0-23-17-23-42-23-17 8-42 24-59 16a63 63 0 01-17-33c10-26 17-17 34-26a88 88 0 00 17-41c-10-17-25-10-34-17-18-8-35-83-18-92 17-10 26 16 34-10 8-24 0-24-8-32-9-10-9-25-26-34-17-17-25-8-33-33l-24-110c0-15 0-24 17-40 10-17 16-17 24-34 0-33-33-67-50-92a189 189 0 01-25-91v-50c-9-17-17-26-17-42v-50c-10-17-17-26-10-42 10-17 17-17 10-34a230 230 0 01-27-150c0-33-8-58-16-92a381 381 0 01-17-100l-26-100v-57c0-17-10-34-10-60 0-41-10-75-10-117 0-16 10-33-10-50-6-16-23-16-23-41-10-34 8-67 0-100 0-10 0-17-10-17 0-10-15-17-15-17 0-17 16-17 8-33l-25-100c1-41-16-75-25-110v-50c0-23 0-32-8-57-8-16 0-41-8-66 0-10 0-26-10-34-7-8-16-17-16-25 0-10 10-17 0-26 0-8 0-17-8-25-10-25 0-50 0-75a908 908 0 01-25-92c-10-17 0-33 0-50s-10-33-17-50c-9-33-9-75-9-108 0-34-16-67-24-100 0-26-8-43-8-67 0-17 8-42-17-50-10-34-10-76-17-110v-50c0-16-10-33-16-50-17-73-25-140-42-215-10-34-10-67-10-100-7-33-24-66-32-91-17-67-42-126-68-192a134 134 0 00-33-60c-10-7-10-32-10-50s-17-13-25-30c-10-16-10-33-17-50-6-33-32-60-39-83-10-16-10-16-26-25-10-8-17-25-26-42l-50-50c-18-16-27-33-43-50a387 387 0 01-68-50 23709 23709 0 01-50-50c-18-15-35-32-50-41-36-33-86-41-129-66-16-10-33-10-50-17a418 418 0 00-110-34 120 120 0 00-50-16 653 653 0 00-127-17c-33 0-76 0-110-8-16-10-16-18-40-10-18 0-27 9-44 0-33-10-67 0-100 0-34 0-68 0-100 17l-103 25a65 65 0 00-42 17c-10 8-17 25-25 25-17 7-43-1-60 7a312 312 0 00-92 42l-76 50c-50 36-100 60-143 100-34 44-76 77-118 110a844 844 0 00-127 176c-50 75-92 150-126 242s-68 184-93 276c-8 25-8 50-17 66-8 25-25 42-33 67-17 50-17 100-34 142-10 17-17 25-25 42-10 17-10 33-17 50a405 405 0 00-34 92c-8 16-17 33-17 50 0 25 17 17 10 40l-18 10c-10 8 0 17-10 25-32 100-75 209-100 317a248 248 0 01-34 67 156 156 0 00-17 67 814 814 0 01-43 133c-17 42-33 75-50 126-60 158-76 325-144 484-16 50-50 90-75 142-42 59-33 84-42 160-8 66-25 116-33 190-10 60-35 93-69 143-50 75-50 125-76 209-16 50-50 108-67 167-15 57-6 82-6 140a778 778 0 01-60 184c-33 109-75 209-110 326-33 90-75 192-92 284a308 308 0 01-65 150c-34 40-42 92-60 133 35 34-33 100-40 142-18 67 0 117-27 175-43 117-85 200-110 326-17 100-110 167-150 259a413 413 0 00-44 175c0 75 8 109-25 184-26 67-42 167-93 217-17 16-160 83-60 125-40 50-100 58-33 142-17-17-60 92-60 100-7 59 0 100-16 159-42 134-110 260-160 393-60 159-143 300-194 460 18 0 18 7 35 0-8 40-25 90-34 133-15 40-40 100-60 133-6 25 0 59-14 92-10 25-34 42-43 67-25 42-16 100-60 133 10 35-24 85-32 118-17 42-17 92-26 134-23 83-65 175-98 259-35 90-60 166-94 258-50 176-126 376-100 560a630 630 0 00 92 275c93 125 210 292 346 360a954 954 0 00 210 82c44 9 60 26 94 34 25 8 60-8 93-8 34 0 76 8 118 8 34 0 50-17 84-25 34-10 76-10 110-10 17 5 42 10 60 10 16 0 32-21 50-21 14-10 31 0 50-10 15-7 15-15 32-24 25-16 60-16 92-33a628 628 0 00 177-110c26-24 50-57 76-82 10-7 25-16 34-32 8-17 8-42 25-60 34-24 84 26 100 0s-16-24-24-41c-25-50 0-91 17-133 17-42 17-42 50-67 34-17 34-42 26-83 0-17-10-34-10-50 10-17 35-10 27-34 17-28 34-3 34-45 0-25 0-50 10-75 8-25 25-25 33-50 10-16 0-50 10-75 11-50 36-67 70-108 16-17 33-34 25-60-10-24-34-16-17-50s76-50 92-82c10-25 0-50 17-67s34-25 42-50c10-32-16-40 0-73 10-25 17-42 17-67a246 246 0 01 61-125c17-26 34-50 60-60 16-7 75 0 67-32 0-25-60-10-76-17-17-17-10-58 0-75 8-17 17-17 25-25 10-8 10-25 17-42 0-5 0-22 10-40 8-15 8-7 25-15 17-10 8-17 0-25v-17c8-8 17-8 17-8 16-17 0-17-10-25a27 27 0 01 0-34l25-25v-17c0-8 0 0 10-8 7-8 24-8 24-17-25-11 10-35 10-51 7-26 32-26 50-50 8-10 8-26 0-34-10-8-18-8-18-25 0-11 10-11 10-18v-17c0-16 0-16-10-25-8-25 26 0 34-25 0-16 0-16 10-33 7-8 15-8 24-17 8-8 25-16 0-25-10-1-17 8-25 8-10 0-27 0-35-10-10-6 8-40 8-50 0-15 10-31 34-23 0 0 8 9 8 17 10 0 10 0 17 8 10 8 17 17 34 8 10-8 20-24 10-33-7-8-24 0-24-25 0-8 17-17 25-25 10-8 10-25 10-33 0-16 0-24-10-33-8-16 0-25 10-33 7-17 0-25 7-42l25-25c8-11 16-11 16-27s-8-17-25-17c-42-8-8-25-8-50 0-16 0-58 17-75 16-8 25 9 33 0 10-8-8-25-8-33-10-25 17-42 25-67 0-8 0-25 10-33 8-10 33 0 40-10 20-6 27-23 20-40-10-16-18-10-27-16-8-8 0-25 0-34 0-25-8-58 17-75 10-8 17 0 17-8s0-17 8-25c10-17 0-34 10-50 16 0 7-17 16-25l17-10c8 0 8-7 16-15 10 0 10-10 10-10 7 0 16 10 16 0 8 0 8-31 8-31-8-8-25-8-34-8-16 0-16 0-8-17 8-8 8-17 8-33s0-12 17-12 26 0 26-17c0-8-17-16-17-33 7-17 50-17 66-25 25-10 34-43 25-68 0-8-16-8-25-17-8-8-8-25-8-41 8-42 17 0 33 0 34 8 0-42 0-50 0-16 17-8 26-16 8-10-10-17-10-25-7-26 35-60 18-76-7 8 0 33-16 25-8-10 0-17-8-34-10-16-17-25-17-41 0-10-8-34 0-42 17-25 42 16 50 25 26 10 17 0 17-14s10-17 26-17 42-16 60 0c7 9 0 17 16 25 8 9 25 0 25-16 0-37-50-13-42-37-1-16 16-8-1-16a86 86 0 01-27-11c0 10 0 18-10 26-16-16 0-33 10-41v-34c0-8 10-8 16-16-17-10-8-34-8-50 25-10 67 58 93 33 8-8 0-17 8-25 8-10 17-10 17-17 18-17-10-33 0-50h18c10 0 10-8 18-17 10-16 17-25 0-33 10-8 18-33-8-33 0-10 10-10 18-17 8-8 8-8 8-17 10-8 17-25 34-25 0-17 10-17 17-25 8-17 0-17 0-25s8-8 8-8v-17c0-17 0-25 10-33 17-25 25-25 25-60v-50c0-7-8-7 0-16 25-8 34-25 60-33a119 119 0 01 75 0c8 8 8 17 17 25 8 9 17 0 34 0 16 0 25 9 33 9 10 9 26 9 34 9 17 0 17 8 25 17 17 8 17 8 17 33s17 42 34 50c8 8 25 8 34 8 8 0 33-16 25 0-10 9-15 9-23 25v58c0 8-10 8-10 17-8 8 0 24-8 33-10 25-26 33-17 67l17 16c8 10 8 26 17 35 25 25 33-25 33-42 17-25 34-33 68-33 25 0 42 17 50 40 10 26 0 43-25 50-17 0-25 0-34 18 0 9 10 25 17 34v40c0 18 10 26 0 43-8 17-60 17-25 33 17 9 60 17 60 42 7 17-10 8-18 25v17c-8 8-8 8-17 8-17 0-25 0-25 17 0 8 0 33 8 33 10-16 17 17 17 25a63 63 0 01-17 34c-8 16-17 50-8 75 8 25 42 25 60 42 16 24 7 32-10 57-34 60-26 100 9 150 16 27 33 50 58 60 8-1 25-1 34 7 8 8 0 25 8 33 8 9 17 17 17 25-1 17-18 26-11 34 10 8 27 0 35 0 17 8 10 17 17 33 8 50 17 84 17 134 0 40-27 75-44 108 17 17 42-33 50-33 17 50 10 100 17 150 0 36 17 36 25 60 10 17 10 50 10 67 7 50 0 100 16 150 17 42 17 84 25 126 8 33 0 75 8 108 10 25 17 50 17 67 10 50 17 100 26 142 16 50 8 100 16 150a200 200 0 00 10 78c7 25 24 25 16 50 0 9-17 9-17 17 0 8 8 17 8 25 10 17 10 34 17 50 10 34 10 75 17 117l25 115c10 33 10 67 17 100 0 34 17 59 17 92 0 25 7 42 16 67 8 42 0 100 8 142 0 8 10 25 10 33 0 16-18 16-18 24-10 18 0 50 0 76 0 50 8 109 0 159 0 17-17 42 8 42 10 23-17 23-17 38 35-2 10 124 60 98 10 18 0 35 10 50 6 18 23 27 32 43 8 25 0 59 0 84l25 175c8 42 8 83 17 134 8 25 17 50 17 75 0 25-20 40-20 58 26 8 10 42 18 67 0 25 15 42 15 67 10 40 17 100 26 142 20 100 44 200 44 300v67c10 20 26 28 26 54s-8 50 0 84c10 25 17 42 17 75 8 42 17 83 17 133 0 26 0 34 8 59 26 50 17 92 17 142 0 25 10 50 10 75v33c0 9 7 17 16 25a228 228 0 01 8 79c8 49 8 99 17 149a150 150 0 00 17 66c16 25 16 33 16 66a751 751 0 00 7 142c8 17 25 34 25 59 0 25-17 25-8 50l17 16v34c0 25 7 42 7 67 16 40 24 100 33 142 7 50 7 90 16 140 8 36 0 77 17 110a193 193 0 01 8 68 230 230 0 00 17 83c8 25 8 59 17 84 5 33 0 75 5 108 10 34 17 84 34 117 10 17 10 33 10 59 0 12-18 36-18 54 0 25 34 42 34 75v59c0 33 10 40 17 75 0 8 8 25 8 40 0 18 0 18-8 26-8 25 8 34 17 59 8 24-9 24-17 39-8 17 8 17 17 34 17 17 17 67 17 92 0 16-9 25 0 40 0 18 17 26 25 35 25 25 0 67 0 100s17 57 25 90c10 18 0 34 0 50 0 9-8 9 0 18 10 9 17 0 17 9 10 17 0 25 0 42 0 16 10 33 17 50a170 170 0 01 0 92h25v16c-25 0-8 17-8 25a53 53 0 01 0 50c0 17 0 34 8 59a130 130 0 01 10 57c0 17 0 59 7 75l17 17v34c0 33 7 66 7 100 2 33 2 66 12 100 0 14 16 6 24 23 10 17-8 25-8 42-9 16 0 33 0 50 0 16 8 25 17 40 8 26 0 60 8 93 0 9 8 9 8 17 0 8-8 8-8 17 0 8 25 16 25 25 10 16 0 33 10 50 0 16 7 33 7 50v50c0 25 0 25 25 25 0 25-10 42-10 67 0 16 8 40 17 58 0 8 17 25 17 25 0 10-9 18-17 26-9 25 17 34 17 59 0 16-17 33-9 50 0 8 10 17 10 25s7 25 7 33c10 25-8 117 34 117 8 25 0 50 8 67 10 0 10 0 10 8a36 36 0 01-9 42c-8 23 0 23 10 39 17 26 17 50 25 76 0 17 0 33 8 50 0 7 17 24 17 32 0 9-8 17-8 34 0 8 0 33 8 40 26 10 17 43 17 68s0 50-26 67c-25 25-25 25-17 58 8 25 17 42 0 59-8 16-17 25-17 42 0 16-8 33-8 50-9 25-26 40 0 66 17 9 25 17 42 17 17 9 25 9 34 17a130 130 0 01 52 69 75 75 0 01 10 40c0 18 7 26 7 43s8 25 8 33c0 17-8 17-16 34-17 25-9 50-43 67-8 8-25 16-33 25a120 120 0 00-34 16c0 17 33 9 7 25-8 10-33 10-16 26 16 0 25-8 25-25 17 0 17 9 25 9 10 0 17-10 25-17 17-8 34 0 50 8 10 0 18 0 26 17 10 8 10 25 17 34 10 25 16 50 24 83 10 25 0 58 0 92 0 25 17 50 17 83 0 34 0 59 17 84 10 14 10 23 16 38a75 75 0 01 8 45c0 8-8 17-8 17 0 8 8 8 8 17 0 7 0 24 10 32 0 17 7 25 0 42v33c0 8 0 34-10 34-8 8-33-10-33 16 0 8 25 25 33 42 10 8 10 25 17 33 10 17 17 25 17 42v42c10 17 17 25 17 40 8 18-8 18 0 43 0 17 17 17 17 34v50c8 36 8 78 17 110v50c0 26-17 18-26 35-17 29-26 70 8 87 17 8 25 8 34 17 8 17 8 25 16 33a116 116 0 01 26 75c0 23-9 57 0 82 8 8 8 25 17 33 0 15-9 32 0 48 0 9 16 25 16 25 0 42 10 75 17 117l26 100a362 362 0 01 10 92c0 17 7 25 7 42v42c0 8 0 16 10 16 7 0 7-8 16 0 8 9-9 34-9 42s10 17 10 25v17c0 17 7 25-10 33-17 9-17 9-8 25a115 115 0 01 25 34c10 8 10 33 10 40 0 18 7 27 15 35 17 40 17 92 17 133 0 50 26 92 26 134 0 25 8 42 8 67s-8 40 8 66c17 17 10 42 10 67 0 9 0 34 7 42 10 17 17 25 17 42v49c7 17 15 25 15 40a295 295 0 01 17 85c0 32 0 66 17 90-26 17 0 17 8 34 10 17-8 42 0 59 0 16 17 40 17 58 0 8-8 25-8 42 0 8 8 8 16 16l-16 17c0 17 8 9 8 17 8 8 8 0 8 17v23c0 25 0 25-8 40-17 26 17 26 25 50 10 19 0 27 10 36 0 7 7-1 16 7v65c0 25 0 58 16 75 10 7 17 16 17 32 0 7-17 16-8 33 25 8 17 40 25 58 10 17 17 42 25 58v25c0 10-16 10-16 17 0 8 16 25 25 34 8 25 8 50 8 83 0 17 0 25 10 42 7 16 16 16 16 33s8 34 8 50c0 17 0 34 8 50 0 9 10 9 10 17 0 8-10 8-10 17 0 15 10 15 17 32 17 25 17 58 26 92v42c1 16 17 25 17 40 0 18 0 26 10 43l23 75c10 17 10 17 0 34-8 16-8 16 10 25 15 16 7 8 7 25 0 33 25 58 25 83 10 25 0 25-8 42 0 17 8 42 17 58 8 17 8 25 25 34 17 8 17 25 25 40 17 27 34 43 34 77l25 25c26 16 34 40 42 66 10 9 26 17 34 34 2 8 2 17 12 17 0 8 15 8 15 8 10 8 10 25 17 33l25 25c16 17 33 25 50 34 17 8 34 8 50 16 11 10 11 17 11 25 8 17 25 17 25 34 24 8 41 8 66 25s60 33 93 42c17 0 25 8 50 16a188 188 0 00 68 10c33 8 60 16 92 16 17 0 26-16 43-16 16-10 33 0 42 0 33-10 67 0 100 0 20 0 27-10 44-17 17-8 34 0 50 0 43 0 68-17 102-25a623 623 0 01 168-42V37300c-17-10-17-25-8-25 17 0 34 8 42 0 17-10 8-25 25-34 17-8 26-8 42-16 10-10 26-10 43-17l25-25c24-17 41-33 66-50 16-17 41-34 60-50l24-25c8-17 16-25 25-25 8-10 17-34 25-50 10-10 17-10 17-17 8-8 8-17 17-25 8-17 25-25 25-42 10-8 10-33 17-42 0-16 0-16 8-33l27-25c8-18 8-43 17-60 16-25 16-50 33-83 18-33 10-67 27-92a63 63 0 00 17-33c10-17 0-25 10-42 7-25 0-58 16-92 8-8 17-16 17-33s0-34 8-42c8-33 17-50 25-83 0-18 8-26 8-43v-42c8-50 25-92 33-142 10-25 10-16 27-33-7-17-24 0-32-25 0-8 0-25 8-42 10-33 0-67 27-83 17-27 17-62 17-94v-92c8-17 16-8 25-17 17-8 0-25 0-33-10-33 8-60 8-92 0-25 10-58 17-83a165 165 0 00 12-93c0-35 8-61 16-93 0-25 0-42 10-67 7-33 16-58 16-92v-50c8-16 0-25 8-41 0-17 10-26 10-50v-42c0-34 16-50 25-84 8-32 8-66 17-91 8-16 17-25 8-40a29 29 0 00-8-18c0-8 7-8 7-17 10-16-8-25-8-41-10-17 7-25 16-34 8-8 0-33 8-40 0-35 8-60 8-93 0-17 10-17 17-34v-40c0-18 10-35 10-50 3-18-7-27 3-43 0-10 8-17 17-25 8-10 0-34 0-42 0-17 8-17 16-25-8-8-16-8-16-17 0-8 8-17 8-25 8-17 0-42 0-67v-50c0-16 8-25 8-40 0-20 0-36 10-44 7-17 16-17 16-34 0-34-10-67 8-91 10-34 10-60 10-92 7-34 15-50 0-84-18-33 7-50 15-83v-18c0-8 10-8 10-17 7-16 0-25-10-40v-43c10-25 10-50 17-75a71 71 0 00 10-42c0-23 7-56 7-80 0-35 17-68 10-100 0-10-10-18-10-35 0-8 10-25 18-33 0-16 8-24 8-40v-34c0-17 10-25 10-34v-40c-25 0 0-35 0-43 8-34 0-67 8-92 0-8 18-25 18-33 0-10-8-10-8-16 0-8 8-8 17-8 8-10 0-34 0-50v-50c0-34 8-50 8-84 0-17-8-33 0-42 0-17 8-25 17-33 17-25 8-60 8-92s9-58 9-84c0-24 0-65 17-82v8c17-16-10-50 0-66 0-17 8-25 8-42 0-32 9-65 9-100-1-15 8-23 8-40 7-21-1-28 7-45 9-8 9 0 17-17v-168c0-17 0-34 9-42 8-10 25-25 0-25-10-25 8-60 16-84 17-25 9-58 9-92 0-34 8-60 0-91 0-18 0-35 8-50 0-10 0-18 10-27 8-8 17 0 17-8 8-18-17-18-17-26s17-18 17-34c8-25 0-60 0-84 0-33 8-58 8-92 0-25 0-58 9-83a414 414 0 00 16-100c0-17-8-25 0-42a75 75 0 00 9-42c0-33 0-67 8-90 9-18 17-18 9-35v-50a250 250 0 01 16-90 340 340 0 00 8-93v-25c0-10 17-1 17-10s-10-7-10-16v-26c10-26 27-41 27-76 0-17-10-17 0-42 0-16 9-25 9-40 0-35 17-60 9-85 0-24 0-24 8-41 8-16 0-33 8-50 0-16 9-25 9-40 0-21 8-37 8-52 0-10-17-35-8-35 8-8 17 0 25-8-25-17-8-60 0-75 9-17 0-25 9-42 0-17 8-34 8-50v-100c0-34 25-50 25-84 0-33 0-67 17-100 9-17 0-25 0-42 0-8 9-33 9-40 8-20 16-27 16-44s0-34 9-42c8-8 25-8 34-25v-27c-1-8 7-17 7-17 0-8 0-16 8-16 0-10 9-10 17-10 9-6 0-14 0-31 0-8 9-17 9-25 0-10 0-25 8-34 9-8 17-16 17-25v-33c0-25 9-50 0-75 0-18 0-43-7-60-10-1-17-10-10-17 0-10 18-10 18-10 8-7 0-15 0-24 0-8 8-8 8-16-13-10 29-42 37-25 0 7-17 7-8 15 8 10 17 0 25 0 17 0 50-8 42 0 9 10 34-8 34-16 0-11 8-18 8-18 0-10-7-10 0-26 10-25 43-25 43-50a63 63 0 00-16-34c0-16-10-16-26-25-8-8 9-25 0-33-17-8-17 0-17-17 0-16 0-16-16-25-17 0-26-8-43-8-33-17-33-34-33-75v-42c8-17 17-25 17-33 0-17 0-17-10-34-7-8-16-25-7-33 0-8 17-25 17-42s-10-17-10-33c-7-25 18-50 26-67 18-25 18-58 18-84a170 170 0 01-1-91c8-25 8-60 16-84a245 245 0 00 17-83c0-25 0-50 8-75 9-36 9-60 9-94 0-16 8-16 17-24 8-12 0-27 0-36 0-25-17-40-17-66 0-10 8-17 8-17v-8c0-10-8 0-8-17v-17c8-8 17-16 17-25v-42c8-32 59-15 42-74h8c-8-8-8-16 9-25 17-8 17 0 17-17 0-16 0-50 16-58h10c8-8 0-8 0-8 8-10 8-18 25-18 16-8 42-8 50-33s-2-60 15-76c8-16 34-33 34-50 0-25-17-50-10-66 0-17 10-34 10-50 0-10-10-17 0-17 0-8 8 0 17 0 9-8 0-8 0-17h17c17 0 26-8 34-16a223 223 0 00 10-76c0-25-10-50 0-75 7-16 0-40 15-58 10-17 17-17 17-34 0-16 0-25 10-40 0-18 0-26-10-35-6-8-23-16-31-25 0-8 16-33 16-50 0-8-8-25 0-33 0-10 9-10 9-10V26500c0-10-10-10 0-18 0-8 8-8 8-8 0-10-6-10-15-10-8-6-8-14-8-14 0-17-8-25-8-34-34-16-26 10-50 17-26 8-43-17-60-33-17-17-17-34-17-60v-32c0-17-8-17-8-25a25 25 0 01 0-34c8-12 17-2 17-2 8-10 0-10 0-17 0-25 25-50 8-76-8-16-17-8-8-24 4-17 4-26 4-42v-40c0-20 8-27 0-35v-34c0-17 17-17 17-33v-25c0-18 8-26 8-35 0-10 0-17 9-34 0-8 8-8 8-17v-16c0-10 0-17 17-17 9-8 18-8 18-25s8-25 8-42c2-17-6-25-6-33v-42c0-16 8-24 17-32 17-25 8-42 0-67-10-17-10-60 8-67 9-8 25 0 34-8 8-10 8-25 17-34 8-26 0-60 0-76 0-33 0-58 8-92 10-16 0-16 0-25v-33c0-16 10-24 18-40 0-10 0-26 8-34 9-17 9-17 26-17h33c26-17-42-33-50-42-10-8 0-33 0-33 0-8 8-8 8-8v-18c10-8 19-17 19-33a63 63 0 00-17-33c-8-8-25-17-25-25-8-8 0-25 8-33 0-17 0-25 9-34 8-8 8 0 8-16v-17c0-25 19-50 44-50 0-8 9-25 17-25h17l17-17c34-33 25-100 17-150-10-25 8-58 0-84-10-8-17-8-17-16-8-25 8-42 17-60 8-7 8-15 8-24 0-16 0-50 10-66 9-17 34-26 34-50 0-17-25-34-33-50a64 64 0 01 17-66c16-25-10-42-17-67-10-42 25-100 50-134a246 246 0 00 34-67c-1-8-1-16 7-16 0 0 9-10 17-10 10-7 10-24 10-40-10-25-10-42 8-67 10-17 10-17 10-34 0-26 8-35 25-52 8-8 8-16 8-25a82 82 0 00 9-40l17-35v-66c-10-10-10 0-10-10-7 0-7 0-7-7v-18c0-8 0-25-10-33 0-10-7-25-7-34 0-16 8-16 17-33v-33c0-10 0-26 8-34l9-10c0-7 0-7 8-15 8 0 17 0 17-8 8-10-10-10-10-17 0-17 18-8 27-8l18-9v-16c0-17 17-9 25-17 8-8 0-17 17-25 110-43 118-43 126-50" fill="#E10A0A"/></g><defs><clipPath id="a"><path d="M0 0h88000v41653H0" fill="#fff"/></clipPath></defs></svg>
