<svg width="19" height="13" viewBox="0 0 19 13" fill="none" xmlns="http://www.w3.org/2000/svg">
<path d="M0 0.000244141H19V13H0V0.000244141Z" fill="white"/>
<path d="M4.23136 6.50005L0 2.1554V10.8455L4.23136 6.50005Z" fill="black"/>
<path d="M5.98173 6.50008L0 0.356812V2.15546L4.23136 6.50012L0 10.8455V12.6408L5.98173 6.50008Z" fill="#FFB915"/>
<path d="M18.9196 7.77184C18.9217 7.75508 18.9494 7.7384 19 7.72164V5.22838H8.26062L3.16654 0.000244141H0V0.356843L5.98173 6.50011L0 12.6409V13H3.16654L8.26062 7.77184H18.9196Z" fill="#007847"/>
<path d="M18.6727 9.04346H8.77387L4.91891 12.9998H19V9.04346H18.6727Z" fill="#000C8A"/>
<path d="M18.6727 3.95649H19V0.00012207H4.91891L8.77387 3.95649H18.6727Z" fill="#E1392D"/>
</svg>
