<svg width="19" height="15" viewBox="0 0 19 15" fill="none" xmlns="http://www.w3.org/2000/svg">
<rect x="0.25" y="0.75" width="18.5" height="13.5" rx="1.75" fill="white" stroke="#F5F5F5" stroke-width="0.5"/>
<mask id="mask0_13032_12449" style="mask-type:alpha" maskUnits="userSpaceOnUse" x="0" y="0" width="19" height="15">
<rect x="0.25" y="0.75" width="18.5" height="13.5" rx="1.75" fill="white" stroke="white" stroke-width="0.5"/>
</mask>
<g mask="url(#mask0_13032_12449)">
<path fill-rule="evenodd" clip-rule="evenodd" d="M0 7.96667H19V0.5H0V7.96667Z" fill="#E12237"/>
<path fill-rule="evenodd" clip-rule="evenodd" d="M4.52288 7.03335C5.16402 7.03335 5.75324 6.80404 6.21767 6.42058C5.97181 6.51509 5.70571 6.56675 5.42792 6.56675C4.1787 6.56675 3.16602 5.52208 3.16602 4.23342C3.16602 2.94475 4.1787 1.90009 5.42792 1.90009C5.70583 1.90009 5.97204 1.95179 6.21799 2.04638C5.75351 1.66277 5.16416 1.43335 4.52288 1.43335C3.02382 1.43335 1.80859 2.68695 1.80859 4.23335C1.80859 5.77975 3.02382 7.03335 4.52288 7.03335ZM5.4282 3.76662C5.4282 4.02436 5.22566 4.23329 4.97582 4.23329C4.72598 4.23329 4.52344 4.02436 4.52344 3.76662C4.52344 3.50889 4.72598 3.29996 4.97582 3.29996C5.22566 3.29996 5.4282 3.50889 5.4282 3.76662ZM5.88012 6.09993C6.12996 6.09993 6.3325 5.891 6.3325 5.63326C6.3325 5.37553 6.12996 5.1666 5.88012 5.1666C5.63027 5.1666 5.42773 5.37553 5.42773 5.63326C5.42773 5.891 5.63027 6.09993 5.88012 6.09993ZM8.14304 5.63326C8.14304 5.891 7.94051 6.09993 7.69066 6.09993C7.44082 6.09993 7.23828 5.891 7.23828 5.63326C7.23828 5.37553 7.44082 5.1666 7.69066 5.1666C7.94051 5.1666 8.14304 5.37553 8.14304 5.63326ZM8.59496 4.23329C8.8448 4.23329 9.04734 4.02436 9.04734 3.76662C9.04734 3.50889 8.8448 3.29996 8.59496 3.29996C8.34512 3.29996 8.14258 3.50889 8.14258 3.76662C8.14258 4.02436 8.34512 4.23329 8.59496 4.23329ZM7.23777 2.36675C7.23777 2.62449 7.03523 2.83342 6.78539 2.83342C6.53555 2.83342 6.33301 2.62449 6.33301 2.36675C6.33301 2.10902 6.53555 1.90009 6.78539 1.90009C7.03523 1.90009 7.23777 2.10902 7.23777 2.36675Z" fill="white"/>
</g>
</svg>
